<?xml version="1.0" encoding="utf-8" standalone="no"?>
<!DOCTYPE svg PUBLIC "-//W3C//DTD SVG 1.1//EN"
  "http://www.w3.org/Graphics/SVG/1.1/DTD/svg11.dtd">
<svg xmlns:xlink="http://www.w3.org/1999/xlink" width="712.659375pt" height="565.837313pt" viewBox="0 0 712.659375 565.837313" xmlns="http://www.w3.org/2000/svg" version="1.1">
 <metadata>
  <rdf:RDF xmlns:dc="http://purl.org/dc/elements/1.1/" xmlns:cc="http://creativecommons.org/ns#" xmlns:rdf="http://www.w3.org/1999/02/22-rdf-syntax-ns#">
   <cc:Work>
    <dc:type rdf:resource="http://purl.org/dc/dcmitype/StillImage"/>
    <dc:date>2025-11-27T08:06:33.403665</dc:date>
    <dc:format>image/svg+xml</dc:format>
    <dc:creator>
     <cc:Agent>
      <dc:title>Matplotlib v3.10.7, https://matplotlib.org/</dc:title>
     </cc:Agent>
    </dc:creator>
   </cc:Work>
  </rdf:RDF>
 </metadata>
 <defs>
  <style type="text/css">*{stroke-linejoin: round; stroke-linecap: butt}</style>
 </defs>
 <g id="figure_1">
  <g id="patch_1">
   <path d="M 0 565.837313 
L 712.659375 565.837313 
L 712.659375 0 
L 0 0 
z
" style="fill: #ffffff"/>
  </g>
  <g id="axes_1">
   <g id="patch_2">
    <path d="M 86.779375 527.31325 
L 705.459375 527.31325 
L 705.459375 35.84925 
L 86.779375 35.84925 
z
" style="fill: #ffffff"/>
   </g>
   <g id="patch_3">
    <path d="M 179.345468 504.973977 
L 179.345468 504.973977 
L 179.345468 480.823412 
L 179.345468 480.823412 
z
" clip-path="url(#p1408614a4f)" style="fill: #4444ff"/>
   </g>
   <g id="patch_4">
    <path d="M 179.345468 474.785771 
L 179.345468 474.785771 
L 179.345468 450.635206 
L 179.345468 450.635206 
z
" clip-path="url(#p1408614a4f)" style="fill: #4444ff"/>
   </g>
   <g id="patch_5">
    <path d="M 179.345468 444.597564 
L 179.345468 444.597564 
L 179.345468 420.446999 
L 179.345468 420.446999 
z
" clip-path="url(#p1408614a4f)" style="fill: #4444ff"/>
   </g>
   <g id="patch_6">
    <path d="M 179.345468 414.409358 
L 179.345468 414.409358 
L 179.345468 390.258793 
L 179.345468 390.258793 
z
" clip-path="url(#p1408614a4f)" style="fill: #4444ff"/>
   </g>
   <g id="patch_7">
    <path d="M 179.345468 384.221152 
L 179.345468 384.221152 
L 179.345468 360.070587 
L 179.345468 360.070587 
z
" clip-path="url(#p1408614a4f)" style="fill: #4444ff"/>
   </g>
   <g id="patch_8">
    <path d="M 179.345468 354.032945 
L 114.901193 354.032945 
L 114.901193 329.88238 
L 179.345468 329.88238 
z
" clip-path="url(#p1408614a4f)" style="fill: #4444ff"/>
   </g>
   <g id="patch_9">
    <path d="M 179.345468 323.844739 
L 247.722383 323.844739 
L 247.722383 299.694174 
L 179.345468 299.694174 
z
" clip-path="url(#p1408614a4f)" style="fill: #ff4444"/>
   </g>
   <g id="patch_10">
    <path d="M 179.345468 293.656533 
L 274.330387 293.656533 
L 274.330387 269.505967 
L 179.345468 269.505967 
z
" clip-path="url(#p1408614a4f)" style="fill: #ff4444"/>
   </g>
   <g id="patch_11">
    <path d="M 179.345468 263.468326 
L 297.00893 263.468326 
L 297.00893 239.317761 
L 179.345468 239.317761 
z
" clip-path="url(#p1408614a4f)" style="fill: #ff4444"/>
   </g>
   <g id="patch_12">
    <path d="M 179.345468 233.28012 
L 311.218999 233.28012 
L 311.218999 209.129555 
L 179.345468 209.129555 
z
" clip-path="url(#p1408614a4f)" style="fill: #ff4444"/>
   </g>
   <g id="patch_13">
    <path d="M 179.345468 203.091913 
L 321.900351 203.091913 
L 321.900351 178.941348 
L 179.345468 178.941348 
z
" clip-path="url(#p1408614a4f)" style="fill: #ff4444"/>
   </g>
   <g id="patch_14">
    <path d="M 179.345468 172.903707 
L 393.065493 172.903707 
L 393.065493 148.753142 
L 179.345468 148.753142 
z
" clip-path="url(#p1408614a4f)" style="fill: #ff4444"/>
   </g>
   <g id="patch_15">
    <path d="M 179.345468 142.715501 
L 441.001286 142.715501 
L 441.001286 118.564936 
L 179.345468 118.564936 
z
" clip-path="url(#p1408614a4f)" style="fill: #ff4444"/>
   </g>
   <g id="patch_16">
    <path d="M 179.345468 112.527294 
L 449.264002 112.527294 
L 449.264002 88.376729 
L 179.345468 88.376729 
z
" clip-path="url(#p1408614a4f)" style="fill: #ff4444"/>
   </g>
   <g id="patch_17">
    <path d="M 179.345468 82.339088 
L 677.337557 82.339088 
L 677.337557 58.188523 
L 179.345468 58.188523 
z
" clip-path="url(#p1408614a4f)" style="fill: #ff4444"/>
   </g>
   <g id="matplotlib.axis_1">
    <g id="xtick_1">
     <g id="line2d_1">
      <defs>
       <path id="me4d510ff0e" d="M 0 0 
L 0 3.5 
" style="stroke: #000000; stroke-width: 0.8"/>
      </defs>
      <g>
       <use xlink:href="#me4d510ff0e" x="88.235478" y="527.31325" style="stroke: #000000; stroke-width: 0.8"/>
      </g>
     </g>
     <g id="text_1">
      <!-- −0.02 -->
      <g transform="translate(72.912821 541.911688) scale(0.1 -0.1)">
       <defs>
        <path id="DejaVuSans-2212" d="M 678 2272 
L 4684 2272 
L 4684 1741 
L 678 1741 
L 678 2272 
z
" transform="scale(0.015625)"/>
        <path id="DejaVuSans-30" d="M 2034 4250 
Q 1547 4250 1301 3770 
Q 1056 3291 1056 2328 
Q 1056 1369 1301 889 
Q 1547 409 2034 409 
Q 2525 409 2770 889 
Q 3016 1369 3016 2328 
Q 3016 3291 2770 3770 
Q 2525 4250 2034 4250 
z
M 2034 4750 
Q 2819 4750 3233 4129 
Q 3647 3509 3647 2328 
Q 3647 1150 3233 529 
Q 2819 -91 2034 -91 
Q 1250 -91 836 529 
Q 422 1150 422 2328 
Q 422 3509 836 4129 
Q 1250 4750 2034 4750 
z
" transform="scale(0.015625)"/>
        <path id="DejaVuSans-2e" d="M 684 794 
L 1344 794 
L 1344 0 
L 684 0 
L 684 794 
z
" transform="scale(0.015625)"/>
        <path id="DejaVuSans-32" d="M 1228 531 
L 3431 531 
L 3431 0 
L 469 0 
L 469 531 
Q 828 903 1448 1529 
Q 2069 2156 2228 2338 
Q 2531 2678 2651 2914 
Q 2772 3150 2772 3378 
Q 2772 3750 2511 3984 
Q 2250 4219 1831 4219 
Q 1534 4219 1204 4116 
Q 875 4013 500 3803 
L 500 4441 
Q 881 4594 1212 4672 
Q 1544 4750 1819 4750 
Q 2544 4750 2975 4387 
Q 3406 4025 3406 3419 
Q 3406 3131 3298 2873 
Q 3191 2616 2906 2266 
Q 2828 2175 2409 1742 
Q 1991 1309 1228 531 
z
" transform="scale(0.015625)"/>
       </defs>
       <use xlink:href="#DejaVuSans-2212"/>
       <use xlink:href="#DejaVuSans-30" transform="translate(83.789062 0)"/>
       <use xlink:href="#DejaVuSans-2e" transform="translate(147.412109 0)"/>
       <use xlink:href="#DejaVuSans-30" transform="translate(179.199219 0)"/>
       <use xlink:href="#DejaVuSans-32" transform="translate(242.822266 0)"/>
      </g>
     </g>
    </g>
    <g id="xtick_2">
     <g id="line2d_2">
      <g>
       <use xlink:href="#me4d510ff0e" x="179.345468" y="527.31325" style="stroke: #000000; stroke-width: 0.8"/>
      </g>
     </g>
     <g id="text_2">
      <!-- 0.00 -->
      <g transform="translate(168.212655 541.911688) scale(0.1 -0.1)">
       <use xlink:href="#DejaVuSans-30"/>
       <use xlink:href="#DejaVuSans-2e" transform="translate(63.623047 0)"/>
       <use xlink:href="#DejaVuSans-30" transform="translate(95.410156 0)"/>
       <use xlink:href="#DejaVuSans-30" transform="translate(159.033203 0)"/>
      </g>
     </g>
    </g>
    <g id="xtick_3">
     <g id="line2d_3">
      <g>
       <use xlink:href="#me4d510ff0e" x="270.455458" y="527.31325" style="stroke: #000000; stroke-width: 0.8"/>
      </g>
     </g>
     <g id="text_3">
      <!-- 0.02 -->
      <g transform="translate(259.322646 541.911688) scale(0.1 -0.1)">
       <use xlink:href="#DejaVuSans-30"/>
       <use xlink:href="#DejaVuSans-2e" transform="translate(63.623047 0)"/>
       <use xlink:href="#DejaVuSans-30" transform="translate(95.410156 0)"/>
       <use xlink:href="#DejaVuSans-32" transform="translate(159.033203 0)"/>
      </g>
     </g>
    </g>
    <g id="xtick_4">
     <g id="line2d_4">
      <g>
       <use xlink:href="#me4d510ff0e" x="361.565448" y="527.31325" style="stroke: #000000; stroke-width: 0.8"/>
      </g>
     </g>
     <g id="text_4">
      <!-- 0.04 -->
      <g transform="translate(350.432636 541.911688) scale(0.1 -0.1)">
       <defs>
        <path id="DejaVuSans-34" d="M 2419 4116 
L 825 1625 
L 2419 1625 
L 2419 4116 
z
M 2253 4666 
L 3047 4666 
L 3047 1625 
L 3713 1625 
L 3713 1100 
L 3047 1100 
L 3047 0 
L 2419 0 
L 2419 1100 
L 313 1100 
L 313 1709 
L 2253 4666 
z
" transform="scale(0.015625)"/>
       </defs>
       <use xlink:href="#DejaVuSans-30"/>
       <use xlink:href="#DejaVuSans-2e" transform="translate(63.623047 0)"/>
       <use xlink:href="#DejaVuSans-30" transform="translate(95.410156 0)"/>
       <use xlink:href="#DejaVuSans-34" transform="translate(159.033203 0)"/>
      </g>
     </g>
    </g>
    <g id="xtick_5">
     <g id="line2d_5">
      <g>
       <use xlink:href="#me4d510ff0e" x="452.675438" y="527.31325" style="stroke: #000000; stroke-width: 0.8"/>
      </g>
     </g>
     <g id="text_5">
      <!-- 0.06 -->
      <g transform="translate(441.542626 541.911688) scale(0.1 -0.1)">
       <defs>
        <path id="DejaVuSans-36" d="M 2113 2584 
Q 1688 2584 1439 2293 
Q 1191 2003 1191 1497 
Q 1191 994 1439 701 
Q 1688 409 2113 409 
Q 2538 409 2786 701 
Q 3034 994 3034 1497 
Q 3034 2003 2786 2293 
Q 2538 2584 2113 2584 
z
M 3366 4563 
L 3366 3988 
Q 3128 4100 2886 4159 
Q 2644 4219 2406 4219 
Q 1781 4219 1451 3797 
Q 1122 3375 1075 2522 
Q 1259 2794 1537 2939 
Q 1816 3084 2150 3084 
Q 2853 3084 3261 2657 
Q 3669 2231 3669 1497 
Q 3669 778 3244 343 
Q 2819 -91 2113 -91 
Q 1303 -91 875 529 
Q 447 1150 447 2328 
Q 447 3434 972 4092 
Q 1497 4750 2381 4750 
Q 2619 4750 2861 4703 
Q 3103 4656 3366 4563 
z
" transform="scale(0.015625)"/>
       </defs>
       <use xlink:href="#DejaVuSans-30"/>
       <use xlink:href="#DejaVuSans-2e" transform="translate(63.623047 0)"/>
       <use xlink:href="#DejaVuSans-30" transform="translate(95.410156 0)"/>
       <use xlink:href="#DejaVuSans-36" transform="translate(159.033203 0)"/>
      </g>
     </g>
    </g>
    <g id="xtick_6">
     <g id="line2d_6">
      <g>
       <use xlink:href="#me4d510ff0e" x="543.785429" y="527.31325" style="stroke: #000000; stroke-width: 0.8"/>
      </g>
     </g>
     <g id="text_6">
      <!-- 0.08 -->
      <g transform="translate(532.652616 541.911688) scale(0.1 -0.1)">
       <defs>
        <path id="DejaVuSans-38" d="M 2034 2216 
Q 1584 2216 1326 1975 
Q 1069 1734 1069 1313 
Q 1069 891 1326 650 
Q 1584 409 2034 409 
Q 2484 409 2743 651 
Q 3003 894 3003 1313 
Q 3003 1734 2745 1975 
Q 2488 2216 2034 2216 
z
M 1403 2484 
Q 997 2584 770 2862 
Q 544 3141 544 3541 
Q 544 4100 942 4425 
Q 1341 4750 2034 4750 
Q 2731 4750 3128 4425 
Q 3525 4100 3525 3541 
Q 3525 3141 3298 2862 
Q 3072 2584 2669 2484 
Q 3125 2378 3379 2068 
Q 3634 1759 3634 1313 
Q 3634 634 3220 271 
Q 2806 -91 2034 -91 
Q 1263 -91 848 271 
Q 434 634 434 1313 
Q 434 1759 690 2068 
Q 947 2378 1403 2484 
z
M 1172 3481 
Q 1172 3119 1398 2916 
Q 1625 2713 2034 2713 
Q 2441 2713 2670 2916 
Q 2900 3119 2900 3481 
Q 2900 3844 2670 4047 
Q 2441 4250 2034 4250 
Q 1625 4250 1398 4047 
Q 1172 3844 1172 3481 
z
" transform="scale(0.015625)"/>
       </defs>
       <use xlink:href="#DejaVuSans-30"/>
       <use xlink:href="#DejaVuSans-2e" transform="translate(63.623047 0)"/>
       <use xlink:href="#DejaVuSans-30" transform="translate(95.410156 0)"/>
       <use xlink:href="#DejaVuSans-38" transform="translate(159.033203 0)"/>
      </g>
     </g>
    </g>
    <g id="xtick_7">
     <g id="line2d_7">
      <g>
       <use xlink:href="#me4d510ff0e" x="634.895419" y="527.31325" style="stroke: #000000; stroke-width: 0.8"/>
      </g>
     </g>
     <g id="text_7">
      <!-- 0.10 -->
      <g transform="translate(623.762606 541.911688) scale(0.1 -0.1)">
       <defs>
        <path id="DejaVuSans-31" d="M 794 531 
L 1825 531 
L 1825 4091 
L 703 3866 
L 703 4441 
L 1819 4666 
L 2450 4666 
L 2450 531 
L 3481 531 
L 3481 0 
L 794 0 
L 794 531 
z
" transform="scale(0.015625)"/>
       </defs>
       <use xlink:href="#DejaVuSans-30"/>
       <use xlink:href="#DejaVuSans-2e" transform="translate(63.623047 0)"/>
       <use xlink:href="#DejaVuSans-31" transform="translate(95.410156 0)"/>
       <use xlink:href="#DejaVuSans-30" transform="translate(159.033203 0)"/>
      </g>
     </g>
    </g>
    <g id="text_8">
     <!-- SHAP value (impact on High Risk prediction) -->
     <g transform="translate(274.198125 556.349656) scale(0.11 -0.11)">
      <defs>
       <path id="DejaVuSans-53" d="M 3425 4513 
L 3425 3897 
Q 3066 4069 2747 4153 
Q 2428 4238 2131 4238 
Q 1616 4238 1336 4038 
Q 1056 3838 1056 3469 
Q 1056 3159 1242 3001 
Q 1428 2844 1947 2747 
L 2328 2669 
Q 3034 2534 3370 2195 
Q 3706 1856 3706 1288 
Q 3706 609 3251 259 
Q 2797 -91 1919 -91 
Q 1588 -91 1214 -16 
Q 841 59 441 206 
L 441 856 
Q 825 641 1194 531 
Q 1563 422 1919 422 
Q 2459 422 2753 634 
Q 3047 847 3047 1241 
Q 3047 1584 2836 1778 
Q 2625 1972 2144 2069 
L 1759 2144 
Q 1053 2284 737 2584 
Q 422 2884 422 3419 
Q 422 4038 858 4394 
Q 1294 4750 2059 4750 
Q 2388 4750 2728 4690 
Q 3069 4631 3425 4513 
z
" transform="scale(0.015625)"/>
       <path id="DejaVuSans-48" d="M 628 4666 
L 1259 4666 
L 1259 2753 
L 3553 2753 
L 3553 4666 
L 4184 4666 
L 4184 0 
L 3553 0 
L 3553 2222 
L 1259 2222 
L 1259 0 
L 628 0 
L 628 4666 
z
" transform="scale(0.015625)"/>
       <path id="DejaVuSans-41" d="M 2188 4044 
L 1331 1722 
L 3047 1722 
L 2188 4044 
z
M 1831 4666 
L 2547 4666 
L 4325 0 
L 3669 0 
L 3244 1197 
L 1141 1197 
L 716 0 
L 50 0 
L 1831 4666 
z
" transform="scale(0.015625)"/>
       <path id="DejaVuSans-50" d="M 1259 4147 
L 1259 2394 
L 2053 2394 
Q 2494 2394 2734 2622 
Q 2975 2850 2975 3272 
Q 2975 3691 2734 3919 
Q 2494 4147 2053 4147 
L 1259 4147 
z
M 628 4666 
L 2053 4666 
Q 2838 4666 3239 4311 
Q 3641 3956 3641 3272 
Q 3641 2581 3239 2228 
Q 2838 1875 2053 1875 
L 1259 1875 
L 1259 0 
L 628 0 
L 628 4666 
z
" transform="scale(0.015625)"/>
       <path id="DejaVuSans-20" transform="scale(0.015625)"/>
       <path id="DejaVuSans-76" d="M 191 3500 
L 800 3500 
L 1894 563 
L 2988 3500 
L 3597 3500 
L 2284 0 
L 1503 0 
L 191 3500 
z
" transform="scale(0.015625)"/>
       <path id="DejaVuSans-61" d="M 2194 1759 
Q 1497 1759 1228 1600 
Q 959 1441 959 1056 
Q 959 750 1161 570 
Q 1363 391 1709 391 
Q 2188 391 2477 730 
Q 2766 1069 2766 1631 
L 2766 1759 
L 2194 1759 
z
M 3341 1997 
L 3341 0 
L 2766 0 
L 2766 531 
Q 2569 213 2275 61 
Q 1981 -91 1556 -91 
Q 1019 -91 701 211 
Q 384 513 384 1019 
Q 384 1609 779 1909 
Q 1175 2209 1959 2209 
L 2766 2209 
L 2766 2266 
Q 2766 2663 2505 2880 
Q 2244 3097 1772 3097 
Q 1472 3097 1187 3025 
Q 903 2953 641 2809 
L 641 3341 
Q 956 3463 1253 3523 
Q 1550 3584 1831 3584 
Q 2591 3584 2966 3190 
Q 3341 2797 3341 1997 
z
" transform="scale(0.015625)"/>
       <path id="DejaVuSans-6c" d="M 603 4863 
L 1178 4863 
L 1178 0 
L 603 0 
L 603 4863 
z
" transform="scale(0.015625)"/>
       <path id="DejaVuSans-75" d="M 544 1381 
L 544 3500 
L 1119 3500 
L 1119 1403 
Q 1119 906 1312 657 
Q 1506 409 1894 409 
Q 2359 409 2629 706 
Q 2900 1003 2900 1516 
L 2900 3500 
L 3475 3500 
L 3475 0 
L 2900 0 
L 2900 538 
Q 2691 219 2414 64 
Q 2138 -91 1772 -91 
Q 1169 -91 856 284 
Q 544 659 544 1381 
z
M 1991 3584 
L 1991 3584 
z
" transform="scale(0.015625)"/>
       <path id="DejaVuSans-65" d="M 3597 1894 
L 3597 1613 
L 953 1613 
Q 991 1019 1311 708 
Q 1631 397 2203 397 
Q 2534 397 2845 478 
Q 3156 559 3463 722 
L 3463 178 
Q 3153 47 2828 -22 
Q 2503 -91 2169 -91 
Q 1331 -91 842 396 
Q 353 884 353 1716 
Q 353 2575 817 3079 
Q 1281 3584 2069 3584 
Q 2775 3584 3186 3129 
Q 3597 2675 3597 1894 
z
M 3022 2063 
Q 3016 2534 2758 2815 
Q 2500 3097 2075 3097 
Q 1594 3097 1305 2825 
Q 1016 2553 972 2059 
L 3022 2063 
z
" transform="scale(0.015625)"/>
       <path id="DejaVuSans-28" d="M 1984 4856 
Q 1566 4138 1362 3434 
Q 1159 2731 1159 2009 
Q 1159 1288 1364 580 
Q 1569 -128 1984 -844 
L 1484 -844 
Q 1016 -109 783 600 
Q 550 1309 550 2009 
Q 550 2706 781 3412 
Q 1013 4119 1484 4856 
L 1984 4856 
z
" transform="scale(0.015625)"/>
       <path id="DejaVuSans-69" d="M 603 3500 
L 1178 3500 
L 1178 0 
L 603 0 
L 603 3500 
z
M 603 4863 
L 1178 4863 
L 1178 4134 
L 603 4134 
L 603 4863 
z
" transform="scale(0.015625)"/>
       <path id="DejaVuSans-6d" d="M 3328 2828 
Q 3544 3216 3844 3400 
Q 4144 3584 4550 3584 
Q 5097 3584 5394 3201 
Q 5691 2819 5691 2113 
L 5691 0 
L 5113 0 
L 5113 2094 
Q 5113 2597 4934 2840 
Q 4756 3084 4391 3084 
Q 3944 3084 3684 2787 
Q 3425 2491 3425 1978 
L 3425 0 
L 2847 0 
L 2847 2094 
Q 2847 2600 2669 2842 
Q 2491 3084 2119 3084 
Q 1678 3084 1418 2786 
Q 1159 2488 1159 1978 
L 1159 0 
L 581 0 
L 581 3500 
L 1159 3500 
L 1159 2956 
Q 1356 3278 1631 3431 
Q 1906 3584 2284 3584 
Q 2666 3584 2933 3390 
Q 3200 3197 3328 2828 
z
" transform="scale(0.015625)"/>
       <path id="DejaVuSans-70" d="M 1159 525 
L 1159 -1331 
L 581 -1331 
L 581 3500 
L 1159 3500 
L 1159 2969 
Q 1341 3281 1617 3432 
Q 1894 3584 2278 3584 
Q 2916 3584 3314 3078 
Q 3713 2572 3713 1747 
Q 3713 922 3314 415 
Q 2916 -91 2278 -91 
Q 1894 -91 1617 61 
Q 1341 213 1159 525 
z
M 3116 1747 
Q 3116 2381 2855 2742 
Q 2594 3103 2138 3103 
Q 1681 3103 1420 2742 
Q 1159 2381 1159 1747 
Q 1159 1113 1420 752 
Q 1681 391 2138 391 
Q 2594 391 2855 752 
Q 3116 1113 3116 1747 
z
" transform="scale(0.015625)"/>
       <path id="DejaVuSans-63" d="M 3122 3366 
L 3122 2828 
Q 2878 2963 2633 3030 
Q 2388 3097 2138 3097 
Q 1578 3097 1268 2742 
Q 959 2388 959 1747 
Q 959 1106 1268 751 
Q 1578 397 2138 397 
Q 2388 397 2633 464 
Q 2878 531 3122 666 
L 3122 134 
Q 2881 22 2623 -34 
Q 2366 -91 2075 -91 
Q 1284 -91 818 406 
Q 353 903 353 1747 
Q 353 2603 823 3093 
Q 1294 3584 2113 3584 
Q 2378 3584 2631 3529 
Q 2884 3475 3122 3366 
z
" transform="scale(0.015625)"/>
       <path id="DejaVuSans-74" d="M 1172 4494 
L 1172 3500 
L 2356 3500 
L 2356 3053 
L 1172 3053 
L 1172 1153 
Q 1172 725 1289 603 
Q 1406 481 1766 481 
L 2356 481 
L 2356 0 
L 1766 0 
Q 1100 0 847 248 
Q 594 497 594 1153 
L 594 3053 
L 172 3053 
L 172 3500 
L 594 3500 
L 594 4494 
L 1172 4494 
z
" transform="scale(0.015625)"/>
       <path id="DejaVuSans-6f" d="M 1959 3097 
Q 1497 3097 1228 2736 
Q 959 2375 959 1747 
Q 959 1119 1226 758 
Q 1494 397 1959 397 
Q 2419 397 2687 759 
Q 2956 1122 2956 1747 
Q 2956 2369 2687 2733 
Q 2419 3097 1959 3097 
z
M 1959 3584 
Q 2709 3584 3137 3096 
Q 3566 2609 3566 1747 
Q 3566 888 3137 398 
Q 2709 -91 1959 -91 
Q 1206 -91 779 398 
Q 353 888 353 1747 
Q 353 2609 779 3096 
Q 1206 3584 1959 3584 
z
" transform="scale(0.015625)"/>
       <path id="DejaVuSans-6e" d="M 3513 2113 
L 3513 0 
L 2938 0 
L 2938 2094 
Q 2938 2591 2744 2837 
Q 2550 3084 2163 3084 
Q 1697 3084 1428 2787 
Q 1159 2491 1159 1978 
L 1159 0 
L 581 0 
L 581 3500 
L 1159 3500 
L 1159 2956 
Q 1366 3272 1645 3428 
Q 1925 3584 2291 3584 
Q 2894 3584 3203 3211 
Q 3513 2838 3513 2113 
z
" transform="scale(0.015625)"/>
       <path id="DejaVuSans-67" d="M 2906 1791 
Q 2906 2416 2648 2759 
Q 2391 3103 1925 3103 
Q 1463 3103 1205 2759 
Q 947 2416 947 1791 
Q 947 1169 1205 825 
Q 1463 481 1925 481 
Q 2391 481 2648 825 
Q 2906 1169 2906 1791 
z
M 3481 434 
Q 3481 -459 3084 -895 
Q 2688 -1331 1869 -1331 
Q 1566 -1331 1297 -1286 
Q 1028 -1241 775 -1147 
L 775 -588 
Q 1028 -725 1275 -790 
Q 1522 -856 1778 -856 
Q 2344 -856 2625 -561 
Q 2906 -266 2906 331 
L 2906 616 
Q 2728 306 2450 153 
Q 2172 0 1784 0 
Q 1141 0 747 490 
Q 353 981 353 1791 
Q 353 2603 747 3093 
Q 1141 3584 1784 3584 
Q 2172 3584 2450 3431 
Q 2728 3278 2906 2969 
L 2906 3500 
L 3481 3500 
L 3481 434 
z
" transform="scale(0.015625)"/>
       <path id="DejaVuSans-68" d="M 3513 2113 
L 3513 0 
L 2938 0 
L 2938 2094 
Q 2938 2591 2744 2837 
Q 2550 3084 2163 3084 
Q 1697 3084 1428 2787 
Q 1159 2491 1159 1978 
L 1159 0 
L 581 0 
L 581 4863 
L 1159 4863 
L 1159 2956 
Q 1366 3272 1645 3428 
Q 1925 3584 2291 3584 
Q 2894 3584 3203 3211 
Q 3513 2838 3513 2113 
z
" transform="scale(0.015625)"/>
       <path id="DejaVuSans-52" d="M 2841 2188 
Q 3044 2119 3236 1894 
Q 3428 1669 3622 1275 
L 4263 0 
L 3584 0 
L 2988 1197 
Q 2756 1666 2539 1819 
Q 2322 1972 1947 1972 
L 1259 1972 
L 1259 0 
L 628 0 
L 628 4666 
L 2053 4666 
Q 2853 4666 3247 4331 
Q 3641 3997 3641 3322 
Q 3641 2881 3436 2590 
Q 3231 2300 2841 2188 
z
M 1259 4147 
L 1259 2491 
L 2053 2491 
Q 2509 2491 2742 2702 
Q 2975 2913 2975 3322 
Q 2975 3731 2742 3939 
Q 2509 4147 2053 4147 
L 1259 4147 
z
" transform="scale(0.015625)"/>
       <path id="DejaVuSans-73" d="M 2834 3397 
L 2834 2853 
Q 2591 2978 2328 3040 
Q 2066 3103 1784 3103 
Q 1356 3103 1142 2972 
Q 928 2841 928 2578 
Q 928 2378 1081 2264 
Q 1234 2150 1697 2047 
L 1894 2003 
Q 2506 1872 2764 1633 
Q 3022 1394 3022 966 
Q 3022 478 2636 193 
Q 2250 -91 1575 -91 
Q 1294 -91 989 -36 
Q 684 19 347 128 
L 347 722 
Q 666 556 975 473 
Q 1284 391 1588 391 
Q 1994 391 2212 530 
Q 2431 669 2431 922 
Q 2431 1156 2273 1281 
Q 2116 1406 1581 1522 
L 1381 1569 
Q 847 1681 609 1914 
Q 372 2147 372 2553 
Q 372 3047 722 3315 
Q 1072 3584 1716 3584 
Q 2034 3584 2315 3537 
Q 2597 3491 2834 3397 
z
" transform="scale(0.015625)"/>
       <path id="DejaVuSans-6b" d="M 581 4863 
L 1159 4863 
L 1159 1991 
L 2875 3500 
L 3609 3500 
L 1753 1863 
L 3688 0 
L 2938 0 
L 1159 1709 
L 1159 0 
L 581 0 
L 581 4863 
z
" transform="scale(0.015625)"/>
       <path id="DejaVuSans-72" d="M 2631 2963 
Q 2534 3019 2420 3045 
Q 2306 3072 2169 3072 
Q 1681 3072 1420 2755 
Q 1159 2438 1159 1844 
L 1159 0 
L 581 0 
L 581 3500 
L 1159 3500 
L 1159 2956 
Q 1341 3275 1631 3429 
Q 1922 3584 2338 3584 
Q 2397 3584 2469 3576 
Q 2541 3569 2628 3553 
L 2631 2963 
z
" transform="scale(0.015625)"/>
       <path id="DejaVuSans-64" d="M 2906 2969 
L 2906 4863 
L 3481 4863 
L 3481 0 
L 2906 0 
L 2906 525 
Q 2725 213 2448 61 
Q 2172 -91 1784 -91 
Q 1150 -91 751 415 
Q 353 922 353 1747 
Q 353 2572 751 3078 
Q 1150 3584 1784 3584 
Q 2172 3584 2448 3432 
Q 2725 3281 2906 2969 
z
M 947 1747 
Q 947 1113 1208 752 
Q 1469 391 1925 391 
Q 2381 391 2643 752 
Q 2906 1113 2906 1747 
Q 2906 2381 2643 2742 
Q 2381 3103 1925 3103 
Q 1469 3103 1208 2742 
Q 947 2381 947 1747 
z
" transform="scale(0.015625)"/>
       <path id="DejaVuSans-29" d="M 513 4856 
L 1013 4856 
Q 1481 4119 1714 3412 
Q 1947 2706 1947 2009 
Q 1947 1309 1714 600 
Q 1481 -109 1013 -844 
L 513 -844 
Q 928 -128 1133 580 
Q 1338 1288 1338 2009 
Q 1338 2731 1133 3434 
Q 928 4138 513 4856 
z
" transform="scale(0.015625)"/>
      </defs>
      <use xlink:href="#DejaVuSans-53"/>
      <use xlink:href="#DejaVuSans-48" transform="translate(63.476562 0)"/>
      <use xlink:href="#DejaVuSans-41" transform="translate(138.671875 0)"/>
      <use xlink:href="#DejaVuSans-50" transform="translate(207.080078 0)"/>
      <use xlink:href="#DejaVuSans-20" transform="translate(267.382812 0)"/>
      <use xlink:href="#DejaVuSans-76" transform="translate(299.169922 0)"/>
      <use xlink:href="#DejaVuSans-61" transform="translate(358.349609 0)"/>
      <use xlink:href="#DejaVuSans-6c" transform="translate(419.628906 0)"/>
      <use xlink:href="#DejaVuSans-75" transform="translate(447.412109 0)"/>
      <use xlink:href="#DejaVuSans-65" transform="translate(510.791016 0)"/>
      <use xlink:href="#DejaVuSans-20" transform="translate(572.314453 0)"/>
      <use xlink:href="#DejaVuSans-28" transform="translate(604.101562 0)"/>
      <use xlink:href="#DejaVuSans-69" transform="translate(643.115234 0)"/>
      <use xlink:href="#DejaVuSans-6d" transform="translate(670.898438 0)"/>
      <use xlink:href="#DejaVuSans-70" transform="translate(768.310547 0)"/>
      <use xlink:href="#DejaVuSans-61" transform="translate(831.787109 0)"/>
      <use xlink:href="#DejaVuSans-63" transform="translate(893.066406 0)"/>
      <use xlink:href="#DejaVuSans-74" transform="translate(948.046875 0)"/>
      <use xlink:href="#DejaVuSans-20" transform="translate(987.255859 0)"/>
      <use xlink:href="#DejaVuSans-6f" transform="translate(1019.042969 0)"/>
      <use xlink:href="#DejaVuSans-6e" transform="translate(1080.224609 0)"/>
      <use xlink:href="#DejaVuSans-20" transform="translate(1143.603516 0)"/>
      <use xlink:href="#DejaVuSans-48" transform="translate(1175.390625 0)"/>
      <use xlink:href="#DejaVuSans-69" transform="translate(1250.585938 0)"/>
      <use xlink:href="#DejaVuSans-67" transform="translate(1278.369141 0)"/>
      <use xlink:href="#DejaVuSans-68" transform="translate(1341.845703 0)"/>
      <use xlink:href="#DejaVuSans-20" transform="translate(1405.224609 0)"/>
      <use xlink:href="#DejaVuSans-52" transform="translate(1437.011719 0)"/>
      <use xlink:href="#DejaVuSans-69" transform="translate(1506.494141 0)"/>
      <use xlink:href="#DejaVuSans-73" transform="translate(1534.277344 0)"/>
      <use xlink:href="#DejaVuSans-6b" transform="translate(1586.376953 0)"/>
      <use xlink:href="#DejaVuSans-20" transform="translate(1644.287109 0)"/>
      <use xlink:href="#DejaVuSans-70" transform="translate(1676.074219 0)"/>
      <use xlink:href="#DejaVuSans-72" transform="translate(1739.550781 0)"/>
      <use xlink:href="#DejaVuSans-65" transform="translate(1778.414062 0)"/>
      <use xlink:href="#DejaVuSans-64" transform="translate(1839.9375 0)"/>
      <use xlink:href="#DejaVuSans-69" transform="translate(1903.414062 0)"/>
      <use xlink:href="#DejaVuSans-63" transform="translate(1931.197266 0)"/>
      <use xlink:href="#DejaVuSans-74" transform="translate(1986.177734 0)"/>
      <use xlink:href="#DejaVuSans-69" transform="translate(2025.386719 0)"/>
      <use xlink:href="#DejaVuSans-6f" transform="translate(2053.169922 0)"/>
      <use xlink:href="#DejaVuSans-6e" transform="translate(2114.351562 0)"/>
      <use xlink:href="#DejaVuSans-29" transform="translate(2177.730469 0)"/>
     </g>
    </g>
   </g>
   <g id="matplotlib.axis_2">
    <g id="ytick_1">
     <g id="line2d_8">
      <defs>
       <path id="m5d34a51238" d="M 0 0 
L -3.5 0 
" style="stroke: #000000; stroke-width: 0.8"/>
      </defs>
      <g>
       <use xlink:href="#m5d34a51238" x="86.779375" y="492.898695" style="stroke: #000000; stroke-width: 0.8"/>
      </g>
     </g>
     <g id="text_9">
      <!-- embedding_246 -->
      <g transform="translate(7.2 496.317992) scale(0.09 -0.09)">
       <defs>
        <path id="DejaVuSans-62" d="M 3116 1747 
Q 3116 2381 2855 2742 
Q 2594 3103 2138 3103 
Q 1681 3103 1420 2742 
Q 1159 2381 1159 1747 
Q 1159 1113 1420 752 
Q 1681 391 2138 391 
Q 2594 391 2855 752 
Q 3116 1113 3116 1747 
z
M 1159 2969 
Q 1341 3281 1617 3432 
Q 1894 3584 2278 3584 
Q 2916 3584 3314 3078 
Q 3713 2572 3713 1747 
Q 3713 922 3314 415 
Q 2916 -91 2278 -91 
Q 1894 -91 1617 61 
Q 1341 213 1159 525 
L 1159 0 
L 581 0 
L 581 4863 
L 1159 4863 
L 1159 2969 
z
" transform="scale(0.015625)"/>
        <path id="DejaVuSans-5f" d="M 3263 -1063 
L 3263 -1509 
L -63 -1509 
L -63 -1063 
L 3263 -1063 
z
" transform="scale(0.015625)"/>
       </defs>
       <use xlink:href="#DejaVuSans-65"/>
       <use xlink:href="#DejaVuSans-6d" transform="translate(61.523438 0)"/>
       <use xlink:href="#DejaVuSans-62" transform="translate(158.935547 0)"/>
       <use xlink:href="#DejaVuSans-65" transform="translate(222.412109 0)"/>
       <use xlink:href="#DejaVuSans-64" transform="translate(283.935547 0)"/>
       <use xlink:href="#DejaVuSans-64" transform="translate(347.412109 0)"/>
       <use xlink:href="#DejaVuSans-69" transform="translate(410.888672 0)"/>
       <use xlink:href="#DejaVuSans-6e" transform="translate(438.671875 0)"/>
       <use xlink:href="#DejaVuSans-67" transform="translate(502.050781 0)"/>
       <use xlink:href="#DejaVuSans-5f" transform="translate(565.527344 0)"/>
       <use xlink:href="#DejaVuSans-32" transform="translate(615.527344 0)"/>
       <use xlink:href="#DejaVuSans-34" transform="translate(679.150391 0)"/>
       <use xlink:href="#DejaVuSans-36" transform="translate(742.773438 0)"/>
      </g>
     </g>
    </g>
    <g id="ytick_2">
     <g id="line2d_9">
      <g>
       <use xlink:href="#m5d34a51238" x="86.779375" y="462.710488" style="stroke: #000000; stroke-width: 0.8"/>
      </g>
     </g>
     <g id="text_10">
      <!-- embedding_250 -->
      <g transform="translate(7.2 466.129785) scale(0.09 -0.09)">
       <defs>
        <path id="DejaVuSans-35" d="M 691 4666 
L 3169 4666 
L 3169 4134 
L 1269 4134 
L 1269 2991 
Q 1406 3038 1543 3061 
Q 1681 3084 1819 3084 
Q 2600 3084 3056 2656 
Q 3513 2228 3513 1497 
Q 3513 744 3044 326 
Q 2575 -91 1722 -91 
Q 1428 -91 1123 -41 
Q 819 9 494 109 
L 494 744 
Q 775 591 1075 516 
Q 1375 441 1709 441 
Q 2250 441 2565 725 
Q 2881 1009 2881 1497 
Q 2881 1984 2565 2268 
Q 2250 2553 1709 2553 
Q 1456 2553 1204 2497 
Q 953 2441 691 2322 
L 691 4666 
z
" transform="scale(0.015625)"/>
       </defs>
       <use xlink:href="#DejaVuSans-65"/>
       <use xlink:href="#DejaVuSans-6d" transform="translate(61.523438 0)"/>
       <use xlink:href="#DejaVuSans-62" transform="translate(158.935547 0)"/>
       <use xlink:href="#DejaVuSans-65" transform="translate(222.412109 0)"/>
       <use xlink:href="#DejaVuSans-64" transform="translate(283.935547 0)"/>
       <use xlink:href="#DejaVuSans-64" transform="translate(347.412109 0)"/>
       <use xlink:href="#DejaVuSans-69" transform="translate(410.888672 0)"/>
       <use xlink:href="#DejaVuSans-6e" transform="translate(438.671875 0)"/>
       <use xlink:href="#DejaVuSans-67" transform="translate(502.050781 0)"/>
       <use xlink:href="#DejaVuSans-5f" transform="translate(565.527344 0)"/>
       <use xlink:href="#DejaVuSans-32" transform="translate(615.527344 0)"/>
       <use xlink:href="#DejaVuSans-35" transform="translate(679.150391 0)"/>
       <use xlink:href="#DejaVuSans-30" transform="translate(742.773438 0)"/>
      </g>
     </g>
    </g>
    <g id="ytick_3">
     <g id="line2d_10">
      <g>
       <use xlink:href="#m5d34a51238" x="86.779375" y="432.522282" style="stroke: #000000; stroke-width: 0.8"/>
      </g>
     </g>
     <g id="text_11">
      <!-- embedding_247 -->
      <g transform="translate(7.2 435.941579) scale(0.09 -0.09)">
       <defs>
        <path id="DejaVuSans-37" d="M 525 4666 
L 3525 4666 
L 3525 4397 
L 1831 0 
L 1172 0 
L 2766 4134 
L 525 4134 
L 525 4666 
z
" transform="scale(0.015625)"/>
       </defs>
       <use xlink:href="#DejaVuSans-65"/>
       <use xlink:href="#DejaVuSans-6d" transform="translate(61.523438 0)"/>
       <use xlink:href="#DejaVuSans-62" transform="translate(158.935547 0)"/>
       <use xlink:href="#DejaVuSans-65" transform="translate(222.412109 0)"/>
       <use xlink:href="#DejaVuSans-64" transform="translate(283.935547 0)"/>
       <use xlink:href="#DejaVuSans-64" transform="translate(347.412109 0)"/>
       <use xlink:href="#DejaVuSans-69" transform="translate(410.888672 0)"/>
       <use xlink:href="#DejaVuSans-6e" transform="translate(438.671875 0)"/>
       <use xlink:href="#DejaVuSans-67" transform="translate(502.050781 0)"/>
       <use xlink:href="#DejaVuSans-5f" transform="translate(565.527344 0)"/>
       <use xlink:href="#DejaVuSans-32" transform="translate(615.527344 0)"/>
       <use xlink:href="#DejaVuSans-34" transform="translate(679.150391 0)"/>
       <use xlink:href="#DejaVuSans-37" transform="translate(742.773438 0)"/>
      </g>
     </g>
    </g>
    <g id="ytick_4">
     <g id="line2d_11">
      <g>
       <use xlink:href="#m5d34a51238" x="86.779375" y="402.334076" style="stroke: #000000; stroke-width: 0.8"/>
      </g>
     </g>
     <g id="text_12">
      <!-- embedding_249 -->
      <g transform="translate(7.2 405.753372) scale(0.09 -0.09)">
       <defs>
        <path id="DejaVuSans-39" d="M 703 97 
L 703 672 
Q 941 559 1184 500 
Q 1428 441 1663 441 
Q 2288 441 2617 861 
Q 2947 1281 2994 2138 
Q 2813 1869 2534 1725 
Q 2256 1581 1919 1581 
Q 1219 1581 811 2004 
Q 403 2428 403 3163 
Q 403 3881 828 4315 
Q 1253 4750 1959 4750 
Q 2769 4750 3195 4129 
Q 3622 3509 3622 2328 
Q 3622 1225 3098 567 
Q 2575 -91 1691 -91 
Q 1453 -91 1209 -44 
Q 966 3 703 97 
z
M 1959 2075 
Q 2384 2075 2632 2365 
Q 2881 2656 2881 3163 
Q 2881 3666 2632 3958 
Q 2384 4250 1959 4250 
Q 1534 4250 1286 3958 
Q 1038 3666 1038 3163 
Q 1038 2656 1286 2365 
Q 1534 2075 1959 2075 
z
" transform="scale(0.015625)"/>
       </defs>
       <use xlink:href="#DejaVuSans-65"/>
       <use xlink:href="#DejaVuSans-6d" transform="translate(61.523438 0)"/>
       <use xlink:href="#DejaVuSans-62" transform="translate(158.935547 0)"/>
       <use xlink:href="#DejaVuSans-65" transform="translate(222.412109 0)"/>
       <use xlink:href="#DejaVuSans-64" transform="translate(283.935547 0)"/>
       <use xlink:href="#DejaVuSans-64" transform="translate(347.412109 0)"/>
       <use xlink:href="#DejaVuSans-69" transform="translate(410.888672 0)"/>
       <use xlink:href="#DejaVuSans-6e" transform="translate(438.671875 0)"/>
       <use xlink:href="#DejaVuSans-67" transform="translate(502.050781 0)"/>
       <use xlink:href="#DejaVuSans-5f" transform="translate(565.527344 0)"/>
       <use xlink:href="#DejaVuSans-32" transform="translate(615.527344 0)"/>
       <use xlink:href="#DejaVuSans-34" transform="translate(679.150391 0)"/>
       <use xlink:href="#DejaVuSans-39" transform="translate(742.773438 0)"/>
      </g>
     </g>
    </g>
    <g id="ytick_5">
     <g id="line2d_12">
      <g>
       <use xlink:href="#m5d34a51238" x="86.779375" y="372.145869" style="stroke: #000000; stroke-width: 0.8"/>
      </g>
     </g>
     <g id="text_13">
      <!-- embedding_248 -->
      <g transform="translate(7.2 375.565166) scale(0.09 -0.09)">
       <use xlink:href="#DejaVuSans-65"/>
       <use xlink:href="#DejaVuSans-6d" transform="translate(61.523438 0)"/>
       <use xlink:href="#DejaVuSans-62" transform="translate(158.935547 0)"/>
       <use xlink:href="#DejaVuSans-65" transform="translate(222.412109 0)"/>
       <use xlink:href="#DejaVuSans-64" transform="translate(283.935547 0)"/>
       <use xlink:href="#DejaVuSans-64" transform="translate(347.412109 0)"/>
       <use xlink:href="#DejaVuSans-69" transform="translate(410.888672 0)"/>
       <use xlink:href="#DejaVuSans-6e" transform="translate(438.671875 0)"/>
       <use xlink:href="#DejaVuSans-67" transform="translate(502.050781 0)"/>
       <use xlink:href="#DejaVuSans-5f" transform="translate(565.527344 0)"/>
       <use xlink:href="#DejaVuSans-32" transform="translate(615.527344 0)"/>
       <use xlink:href="#DejaVuSans-34" transform="translate(679.150391 0)"/>
       <use xlink:href="#DejaVuSans-38" transform="translate(742.773438 0)"/>
      </g>
     </g>
    </g>
    <g id="ytick_6">
     <g id="line2d_13">
      <g>
       <use xlink:href="#m5d34a51238" x="86.779375" y="341.957663" style="stroke: #000000; stroke-width: 0.8"/>
      </g>
     </g>
     <g id="text_14">
      <!-- embedding_656 -->
      <g transform="translate(7.2 345.37696) scale(0.09 -0.09)">
       <use xlink:href="#DejaVuSans-65"/>
       <use xlink:href="#DejaVuSans-6d" transform="translate(61.523438 0)"/>
       <use xlink:href="#DejaVuSans-62" transform="translate(158.935547 0)"/>
       <use xlink:href="#DejaVuSans-65" transform="translate(222.412109 0)"/>
       <use xlink:href="#DejaVuSans-64" transform="translate(283.935547 0)"/>
       <use xlink:href="#DejaVuSans-64" transform="translate(347.412109 0)"/>
       <use xlink:href="#DejaVuSans-69" transform="translate(410.888672 0)"/>
       <use xlink:href="#DejaVuSans-6e" transform="translate(438.671875 0)"/>
       <use xlink:href="#DejaVuSans-67" transform="translate(502.050781 0)"/>
       <use xlink:href="#DejaVuSans-5f" transform="translate(565.527344 0)"/>
       <use xlink:href="#DejaVuSans-36" transform="translate(615.527344 0)"/>
       <use xlink:href="#DejaVuSans-35" transform="translate(679.150391 0)"/>
       <use xlink:href="#DejaVuSans-36" transform="translate(742.773438 0)"/>
      </g>
     </g>
    </g>
    <g id="ytick_7">
     <g id="line2d_14">
      <g>
       <use xlink:href="#m5d34a51238" x="86.779375" y="311.769456" style="stroke: #000000; stroke-width: 0.8"/>
      </g>
     </g>
     <g id="text_15">
      <!-- embedding_456 -->
      <g transform="translate(7.2 315.188753) scale(0.09 -0.09)">
       <use xlink:href="#DejaVuSans-65"/>
       <use xlink:href="#DejaVuSans-6d" transform="translate(61.523438 0)"/>
       <use xlink:href="#DejaVuSans-62" transform="translate(158.935547 0)"/>
       <use xlink:href="#DejaVuSans-65" transform="translate(222.412109 0)"/>
       <use xlink:href="#DejaVuSans-64" transform="translate(283.935547 0)"/>
       <use xlink:href="#DejaVuSans-64" transform="translate(347.412109 0)"/>
       <use xlink:href="#DejaVuSans-69" transform="translate(410.888672 0)"/>
       <use xlink:href="#DejaVuSans-6e" transform="translate(438.671875 0)"/>
       <use xlink:href="#DejaVuSans-67" transform="translate(502.050781 0)"/>
       <use xlink:href="#DejaVuSans-5f" transform="translate(565.527344 0)"/>
       <use xlink:href="#DejaVuSans-34" transform="translate(615.527344 0)"/>
       <use xlink:href="#DejaVuSans-35" transform="translate(679.150391 0)"/>
       <use xlink:href="#DejaVuSans-36" transform="translate(742.773438 0)"/>
      </g>
     </g>
    </g>
    <g id="ytick_8">
     <g id="line2d_15">
      <g>
       <use xlink:href="#m5d34a51238" x="86.779375" y="281.58125" style="stroke: #000000; stroke-width: 0.8"/>
      </g>
     </g>
     <g id="text_16">
      <!-- embedding_35 -->
      <g transform="translate(12.92625 285.000547) scale(0.09 -0.09)">
       <defs>
        <path id="DejaVuSans-33" d="M 2597 2516 
Q 3050 2419 3304 2112 
Q 3559 1806 3559 1356 
Q 3559 666 3084 287 
Q 2609 -91 1734 -91 
Q 1441 -91 1130 -33 
Q 819 25 488 141 
L 488 750 
Q 750 597 1062 519 
Q 1375 441 1716 441 
Q 2309 441 2620 675 
Q 2931 909 2931 1356 
Q 2931 1769 2642 2001 
Q 2353 2234 1838 2234 
L 1294 2234 
L 1294 2753 
L 1863 2753 
Q 2328 2753 2575 2939 
Q 2822 3125 2822 3475 
Q 2822 3834 2567 4026 
Q 2313 4219 1838 4219 
Q 1578 4219 1281 4162 
Q 984 4106 628 3988 
L 628 4550 
Q 988 4650 1302 4700 
Q 1616 4750 1894 4750 
Q 2613 4750 3031 4423 
Q 3450 4097 3450 3541 
Q 3450 3153 3228 2886 
Q 3006 2619 2597 2516 
z
" transform="scale(0.015625)"/>
       </defs>
       <use xlink:href="#DejaVuSans-65"/>
       <use xlink:href="#DejaVuSans-6d" transform="translate(61.523438 0)"/>
       <use xlink:href="#DejaVuSans-62" transform="translate(158.935547 0)"/>
       <use xlink:href="#DejaVuSans-65" transform="translate(222.412109 0)"/>
       <use xlink:href="#DejaVuSans-64" transform="translate(283.935547 0)"/>
       <use xlink:href="#DejaVuSans-64" transform="translate(347.412109 0)"/>
       <use xlink:href="#DejaVuSans-69" transform="translate(410.888672 0)"/>
       <use xlink:href="#DejaVuSans-6e" transform="translate(438.671875 0)"/>
       <use xlink:href="#DejaVuSans-67" transform="translate(502.050781 0)"/>
       <use xlink:href="#DejaVuSans-5f" transform="translate(565.527344 0)"/>
       <use xlink:href="#DejaVuSans-33" transform="translate(615.527344 0)"/>
       <use xlink:href="#DejaVuSans-35" transform="translate(679.150391 0)"/>
      </g>
     </g>
    </g>
    <g id="ytick_9">
     <g id="line2d_16">
      <g>
       <use xlink:href="#m5d34a51238" x="86.779375" y="251.393044" style="stroke: #000000; stroke-width: 0.8"/>
      </g>
     </g>
     <g id="text_17">
      <!-- embedding_6 -->
      <g transform="translate(18.6525 254.81234) scale(0.09 -0.09)">
       <use xlink:href="#DejaVuSans-65"/>
       <use xlink:href="#DejaVuSans-6d" transform="translate(61.523438 0)"/>
       <use xlink:href="#DejaVuSans-62" transform="translate(158.935547 0)"/>
       <use xlink:href="#DejaVuSans-65" transform="translate(222.412109 0)"/>
       <use xlink:href="#DejaVuSans-64" transform="translate(283.935547 0)"/>
       <use xlink:href="#DejaVuSans-64" transform="translate(347.412109 0)"/>
       <use xlink:href="#DejaVuSans-69" transform="translate(410.888672 0)"/>
       <use xlink:href="#DejaVuSans-6e" transform="translate(438.671875 0)"/>
       <use xlink:href="#DejaVuSans-67" transform="translate(502.050781 0)"/>
       <use xlink:href="#DejaVuSans-5f" transform="translate(565.527344 0)"/>
       <use xlink:href="#DejaVuSans-36" transform="translate(615.527344 0)"/>
      </g>
     </g>
    </g>
    <g id="ytick_10">
     <g id="line2d_17">
      <g>
       <use xlink:href="#m5d34a51238" x="86.779375" y="221.204837" style="stroke: #000000; stroke-width: 0.8"/>
      </g>
     </g>
     <g id="text_18">
      <!-- embedding_147 -->
      <g transform="translate(7.2 224.624134) scale(0.09 -0.09)">
       <use xlink:href="#DejaVuSans-65"/>
       <use xlink:href="#DejaVuSans-6d" transform="translate(61.523438 0)"/>
       <use xlink:href="#DejaVuSans-62" transform="translate(158.935547 0)"/>
       <use xlink:href="#DejaVuSans-65" transform="translate(222.412109 0)"/>
       <use xlink:href="#DejaVuSans-64" transform="translate(283.935547 0)"/>
       <use xlink:href="#DejaVuSans-64" transform="translate(347.412109 0)"/>
       <use xlink:href="#DejaVuSans-69" transform="translate(410.888672 0)"/>
       <use xlink:href="#DejaVuSans-6e" transform="translate(438.671875 0)"/>
       <use xlink:href="#DejaVuSans-67" transform="translate(502.050781 0)"/>
       <use xlink:href="#DejaVuSans-5f" transform="translate(565.527344 0)"/>
       <use xlink:href="#DejaVuSans-31" transform="translate(615.527344 0)"/>
       <use xlink:href="#DejaVuSans-34" transform="translate(679.150391 0)"/>
       <use xlink:href="#DejaVuSans-37" transform="translate(742.773438 0)"/>
      </g>
     </g>
    </g>
    <g id="ytick_11">
     <g id="line2d_18">
      <g>
       <use xlink:href="#m5d34a51238" x="86.779375" y="191.016631" style="stroke: #000000; stroke-width: 0.8"/>
      </g>
     </g>
     <g id="text_19">
      <!-- embedding_154 -->
      <g transform="translate(7.2 194.435928) scale(0.09 -0.09)">
       <use xlink:href="#DejaVuSans-65"/>
       <use xlink:href="#DejaVuSans-6d" transform="translate(61.523438 0)"/>
       <use xlink:href="#DejaVuSans-62" transform="translate(158.935547 0)"/>
       <use xlink:href="#DejaVuSans-65" transform="translate(222.412109 0)"/>
       <use xlink:href="#DejaVuSans-64" transform="translate(283.935547 0)"/>
       <use xlink:href="#DejaVuSans-64" transform="translate(347.412109 0)"/>
       <use xlink:href="#DejaVuSans-69" transform="translate(410.888672 0)"/>
       <use xlink:href="#DejaVuSans-6e" transform="translate(438.671875 0)"/>
       <use xlink:href="#DejaVuSans-67" transform="translate(502.050781 0)"/>
       <use xlink:href="#DejaVuSans-5f" transform="translate(565.527344 0)"/>
       <use xlink:href="#DejaVuSans-31" transform="translate(615.527344 0)"/>
       <use xlink:href="#DejaVuSans-35" transform="translate(679.150391 0)"/>
       <use xlink:href="#DejaVuSans-34" transform="translate(742.773438 0)"/>
      </g>
     </g>
    </g>
    <g id="ytick_12">
     <g id="line2d_19">
      <g>
       <use xlink:href="#m5d34a51238" x="86.779375" y="160.828424" style="stroke: #000000; stroke-width: 0.8"/>
      </g>
     </g>
     <g id="text_20">
      <!-- embedding_162 -->
      <g transform="translate(7.2 164.247721) scale(0.09 -0.09)">
       <use xlink:href="#DejaVuSans-65"/>
       <use xlink:href="#DejaVuSans-6d" transform="translate(61.523438 0)"/>
       <use xlink:href="#DejaVuSans-62" transform="translate(158.935547 0)"/>
       <use xlink:href="#DejaVuSans-65" transform="translate(222.412109 0)"/>
       <use xlink:href="#DejaVuSans-64" transform="translate(283.935547 0)"/>
       <use xlink:href="#DejaVuSans-64" transform="translate(347.412109 0)"/>
       <use xlink:href="#DejaVuSans-69" transform="translate(410.888672 0)"/>
       <use xlink:href="#DejaVuSans-6e" transform="translate(438.671875 0)"/>
       <use xlink:href="#DejaVuSans-67" transform="translate(502.050781 0)"/>
       <use xlink:href="#DejaVuSans-5f" transform="translate(565.527344 0)"/>
       <use xlink:href="#DejaVuSans-31" transform="translate(615.527344 0)"/>
       <use xlink:href="#DejaVuSans-36" transform="translate(679.150391 0)"/>
       <use xlink:href="#DejaVuSans-32" transform="translate(742.773438 0)"/>
      </g>
     </g>
    </g>
    <g id="ytick_13">
     <g id="line2d_20">
      <g>
       <use xlink:href="#m5d34a51238" x="86.779375" y="130.640218" style="stroke: #000000; stroke-width: 0.8"/>
      </g>
     </g>
     <g id="text_21">
      <!-- embedding_572 -->
      <g transform="translate(7.2 134.059515) scale(0.09 -0.09)">
       <use xlink:href="#DejaVuSans-65"/>
       <use xlink:href="#DejaVuSans-6d" transform="translate(61.523438 0)"/>
       <use xlink:href="#DejaVuSans-62" transform="translate(158.935547 0)"/>
       <use xlink:href="#DejaVuSans-65" transform="translate(222.412109 0)"/>
       <use xlink:href="#DejaVuSans-64" transform="translate(283.935547 0)"/>
       <use xlink:href="#DejaVuSans-64" transform="translate(347.412109 0)"/>
       <use xlink:href="#DejaVuSans-69" transform="translate(410.888672 0)"/>
       <use xlink:href="#DejaVuSans-6e" transform="translate(438.671875 0)"/>
       <use xlink:href="#DejaVuSans-67" transform="translate(502.050781 0)"/>
       <use xlink:href="#DejaVuSans-5f" transform="translate(565.527344 0)"/>
       <use xlink:href="#DejaVuSans-35" transform="translate(615.527344 0)"/>
       <use xlink:href="#DejaVuSans-37" transform="translate(679.150391 0)"/>
       <use xlink:href="#DejaVuSans-32" transform="translate(742.773438 0)"/>
      </g>
     </g>
    </g>
    <g id="ytick_14">
     <g id="line2d_21">
      <g>
       <use xlink:href="#m5d34a51238" x="86.779375" y="100.452012" style="stroke: #000000; stroke-width: 0.8"/>
      </g>
     </g>
     <g id="text_22">
      <!-- embedding_363 -->
      <g transform="translate(7.2 103.871309) scale(0.09 -0.09)">
       <use xlink:href="#DejaVuSans-65"/>
       <use xlink:href="#DejaVuSans-6d" transform="translate(61.523438 0)"/>
       <use xlink:href="#DejaVuSans-62" transform="translate(158.935547 0)"/>
       <use xlink:href="#DejaVuSans-65" transform="translate(222.412109 0)"/>
       <use xlink:href="#DejaVuSans-64" transform="translate(283.935547 0)"/>
       <use xlink:href="#DejaVuSans-64" transform="translate(347.412109 0)"/>
       <use xlink:href="#DejaVuSans-69" transform="translate(410.888672 0)"/>
       <use xlink:href="#DejaVuSans-6e" transform="translate(438.671875 0)"/>
       <use xlink:href="#DejaVuSans-67" transform="translate(502.050781 0)"/>
       <use xlink:href="#DejaVuSans-5f" transform="translate(565.527344 0)"/>
       <use xlink:href="#DejaVuSans-33" transform="translate(615.527344 0)"/>
       <use xlink:href="#DejaVuSans-36" transform="translate(679.150391 0)"/>
       <use xlink:href="#DejaVuSans-33" transform="translate(742.773438 0)"/>
      </g>
     </g>
    </g>
    <g id="ytick_15">
     <g id="line2d_22">
      <g>
       <use xlink:href="#m5d34a51238" x="86.779375" y="70.263805" style="stroke: #000000; stroke-width: 0.8"/>
      </g>
     </g>
     <g id="text_23">
      <!-- embedding_155 -->
      <g transform="translate(7.2 73.683102) scale(0.09 -0.09)">
       <use xlink:href="#DejaVuSans-65"/>
       <use xlink:href="#DejaVuSans-6d" transform="translate(61.523438 0)"/>
       <use xlink:href="#DejaVuSans-62" transform="translate(158.935547 0)"/>
       <use xlink:href="#DejaVuSans-65" transform="translate(222.412109 0)"/>
       <use xlink:href="#DejaVuSans-64" transform="translate(283.935547 0)"/>
       <use xlink:href="#DejaVuSans-64" transform="translate(347.412109 0)"/>
       <use xlink:href="#DejaVuSans-69" transform="translate(410.888672 0)"/>
       <use xlink:href="#DejaVuSans-6e" transform="translate(438.671875 0)"/>
       <use xlink:href="#DejaVuSans-67" transform="translate(502.050781 0)"/>
       <use xlink:href="#DejaVuSans-5f" transform="translate(565.527344 0)"/>
       <use xlink:href="#DejaVuSans-31" transform="translate(615.527344 0)"/>
       <use xlink:href="#DejaVuSans-35" transform="translate(679.150391 0)"/>
       <use xlink:href="#DejaVuSans-35" transform="translate(742.773438 0)"/>
      </g>
     </g>
    </g>
   </g>
   <g id="line2d_23">
    <path d="M 179.345468 527.31325 
L 179.345468 35.84925 
" clip-path="url(#p1408614a4f)" style="fill: none; stroke: #000000; stroke-width: 0.5; stroke-linecap: square"/>
   </g>
   <g id="patch_18">
    <path d="M 86.779375 527.31325 
L 86.779375 35.84925 
" style="fill: none; stroke: #000000; stroke-width: 0.8; stroke-linejoin: miter; stroke-linecap: square"/>
   </g>
   <g id="patch_19">
    <path d="M 705.459375 527.31325 
L 705.459375 35.84925 
" style="fill: none; stroke: #000000; stroke-width: 0.8; stroke-linejoin: miter; stroke-linecap: square"/>
   </g>
   <g id="patch_20">
    <path d="M 86.779375 527.31325 
L 705.459375 527.31325 
" style="fill: none; stroke: #000000; stroke-width: 0.8; stroke-linejoin: miter; stroke-linecap: square"/>
   </g>
   <g id="patch_21">
    <path d="M 86.779375 35.84925 
L 705.459375 35.84925 
" style="fill: none; stroke: #000000; stroke-width: 0.8; stroke-linejoin: miter; stroke-linecap: square"/>
   </g>
   <g id="text_24">
    <!-- SHAP Explanation for High Risk Prediction -->
    <g transform="translate(253.05875 16.318125) scale(0.12 -0.12)">
     <defs>
      <path id="DejaVuSans-Bold-53" d="M 3834 4519 
L 3834 3531 
Q 3450 3703 3084 3790 
Q 2719 3878 2394 3878 
Q 1963 3878 1756 3759 
Q 1550 3641 1550 3391 
Q 1550 3203 1689 3098 
Q 1828 2994 2194 2919 
L 2706 2816 
Q 3484 2659 3812 2340 
Q 4141 2022 4141 1434 
Q 4141 663 3683 286 
Q 3225 -91 2284 -91 
Q 1841 -91 1394 -6 
Q 947 78 500 244 
L 500 1259 
Q 947 1022 1364 901 
Q 1781 781 2169 781 
Q 2563 781 2772 912 
Q 2981 1044 2981 1288 
Q 2981 1506 2839 1625 
Q 2697 1744 2272 1838 
L 1806 1941 
Q 1106 2091 782 2419 
Q 459 2747 459 3303 
Q 459 4000 909 4375 
Q 1359 4750 2203 4750 
Q 2588 4750 2994 4692 
Q 3400 4634 3834 4519 
z
" transform="scale(0.015625)"/>
      <path id="DejaVuSans-Bold-48" d="M 588 4666 
L 1791 4666 
L 1791 2888 
L 3566 2888 
L 3566 4666 
L 4769 4666 
L 4769 0 
L 3566 0 
L 3566 1978 
L 1791 1978 
L 1791 0 
L 588 0 
L 588 4666 
z
" transform="scale(0.015625)"/>
      <path id="DejaVuSans-Bold-41" d="M 3419 850 
L 1538 850 
L 1241 0 
L 31 0 
L 1759 4666 
L 3194 4666 
L 4922 0 
L 3713 0 
L 3419 850 
z
M 1838 1716 
L 3116 1716 
L 2478 3572 
L 1838 1716 
z
" transform="scale(0.015625)"/>
      <path id="DejaVuSans-Bold-50" d="M 588 4666 
L 2584 4666 
Q 3475 4666 3951 4270 
Q 4428 3875 4428 3144 
Q 4428 2409 3951 2014 
Q 3475 1619 2584 1619 
L 1791 1619 
L 1791 0 
L 588 0 
L 588 4666 
z
M 1791 3794 
L 1791 2491 
L 2456 2491 
Q 2806 2491 2997 2661 
Q 3188 2831 3188 3144 
Q 3188 3456 2997 3625 
Q 2806 3794 2456 3794 
L 1791 3794 
z
" transform="scale(0.015625)"/>
      <path id="DejaVuSans-Bold-20" transform="scale(0.015625)"/>
      <path id="DejaVuSans-Bold-45" d="M 588 4666 
L 3834 4666 
L 3834 3756 
L 1791 3756 
L 1791 2888 
L 3713 2888 
L 3713 1978 
L 1791 1978 
L 1791 909 
L 3903 909 
L 3903 0 
L 588 0 
L 588 4666 
z
" transform="scale(0.015625)"/>
      <path id="DejaVuSans-Bold-78" d="M 1422 1791 
L 159 3500 
L 1344 3500 
L 2059 2463 
L 2784 3500 
L 3969 3500 
L 2706 1797 
L 4031 0 
L 2847 0 
L 2059 1106 
L 1281 0 
L 97 0 
L 1422 1791 
z
" transform="scale(0.015625)"/>
      <path id="DejaVuSans-Bold-70" d="M 1656 506 
L 1656 -1331 
L 538 -1331 
L 538 3500 
L 1656 3500 
L 1656 2988 
Q 1888 3294 2169 3439 
Q 2450 3584 2816 3584 
Q 3463 3584 3878 3070 
Q 4294 2556 4294 1747 
Q 4294 938 3878 423 
Q 3463 -91 2816 -91 
Q 2450 -91 2169 54 
Q 1888 200 1656 506 
z
M 2400 2772 
Q 2041 2772 1848 2508 
Q 1656 2244 1656 1747 
Q 1656 1250 1848 986 
Q 2041 722 2400 722 
Q 2759 722 2948 984 
Q 3138 1247 3138 1747 
Q 3138 2247 2948 2509 
Q 2759 2772 2400 2772 
z
" transform="scale(0.015625)"/>
      <path id="DejaVuSans-Bold-6c" d="M 538 4863 
L 1656 4863 
L 1656 0 
L 538 0 
L 538 4863 
z
" transform="scale(0.015625)"/>
      <path id="DejaVuSans-Bold-61" d="M 2106 1575 
Q 1756 1575 1579 1456 
Q 1403 1338 1403 1106 
Q 1403 894 1545 773 
Q 1688 653 1941 653 
Q 2256 653 2472 879 
Q 2688 1106 2688 1447 
L 2688 1575 
L 2106 1575 
z
M 3816 1997 
L 3816 0 
L 2688 0 
L 2688 519 
Q 2463 200 2181 54 
Q 1900 -91 1497 -91 
Q 953 -91 614 226 
Q 275 544 275 1050 
Q 275 1666 698 1953 
Q 1122 2241 2028 2241 
L 2688 2241 
L 2688 2328 
Q 2688 2594 2478 2717 
Q 2269 2841 1825 2841 
Q 1466 2841 1156 2769 
Q 847 2697 581 2553 
L 581 3406 
Q 941 3494 1303 3539 
Q 1666 3584 2028 3584 
Q 2975 3584 3395 3211 
Q 3816 2838 3816 1997 
z
" transform="scale(0.015625)"/>
      <path id="DejaVuSans-Bold-6e" d="M 4056 2131 
L 4056 0 
L 2931 0 
L 2931 347 
L 2931 1631 
Q 2931 2084 2911 2256 
Q 2891 2428 2841 2509 
Q 2775 2619 2662 2680 
Q 2550 2741 2406 2741 
Q 2056 2741 1856 2470 
Q 1656 2200 1656 1722 
L 1656 0 
L 538 0 
L 538 3500 
L 1656 3500 
L 1656 2988 
Q 1909 3294 2193 3439 
Q 2478 3584 2822 3584 
Q 3428 3584 3742 3212 
Q 4056 2841 4056 2131 
z
" transform="scale(0.015625)"/>
      <path id="DejaVuSans-Bold-74" d="M 1759 4494 
L 1759 3500 
L 2913 3500 
L 2913 2700 
L 1759 2700 
L 1759 1216 
Q 1759 972 1856 886 
Q 1953 800 2241 800 
L 2816 800 
L 2816 0 
L 1856 0 
Q 1194 0 917 276 
Q 641 553 641 1216 
L 641 2700 
L 84 2700 
L 84 3500 
L 641 3500 
L 641 4494 
L 1759 4494 
z
" transform="scale(0.015625)"/>
      <path id="DejaVuSans-Bold-69" d="M 538 3500 
L 1656 3500 
L 1656 0 
L 538 0 
L 538 3500 
z
M 538 4863 
L 1656 4863 
L 1656 3950 
L 538 3950 
L 538 4863 
z
" transform="scale(0.015625)"/>
      <path id="DejaVuSans-Bold-6f" d="M 2203 2784 
Q 1831 2784 1636 2517 
Q 1441 2250 1441 1747 
Q 1441 1244 1636 976 
Q 1831 709 2203 709 
Q 2569 709 2762 976 
Q 2956 1244 2956 1747 
Q 2956 2250 2762 2517 
Q 2569 2784 2203 2784 
z
M 2203 3584 
Q 3106 3584 3614 3096 
Q 4122 2609 4122 1747 
Q 4122 884 3614 396 
Q 3106 -91 2203 -91 
Q 1297 -91 786 396 
Q 275 884 275 1747 
Q 275 2609 786 3096 
Q 1297 3584 2203 3584 
z
" transform="scale(0.015625)"/>
      <path id="DejaVuSans-Bold-66" d="M 2841 4863 
L 2841 4128 
L 2222 4128 
Q 1984 4128 1890 4042 
Q 1797 3956 1797 3744 
L 1797 3500 
L 2753 3500 
L 2753 2700 
L 1797 2700 
L 1797 0 
L 678 0 
L 678 2700 
L 122 2700 
L 122 3500 
L 678 3500 
L 678 3744 
Q 678 4316 997 4589 
Q 1316 4863 1984 4863 
L 2841 4863 
z
" transform="scale(0.015625)"/>
      <path id="DejaVuSans-Bold-72" d="M 3138 2547 
Q 2991 2616 2845 2648 
Q 2700 2681 2553 2681 
Q 2122 2681 1889 2404 
Q 1656 2128 1656 1613 
L 1656 0 
L 538 0 
L 538 3500 
L 1656 3500 
L 1656 2925 
Q 1872 3269 2151 3426 
Q 2431 3584 2822 3584 
Q 2878 3584 2943 3579 
Q 3009 3575 3134 3559 
L 3138 2547 
z
" transform="scale(0.015625)"/>
      <path id="DejaVuSans-Bold-67" d="M 2919 594 
Q 2688 288 2409 144 
Q 2131 0 1766 0 
Q 1125 0 706 504 
Q 288 1009 288 1791 
Q 288 2575 706 3076 
Q 1125 3578 1766 3578 
Q 2131 3578 2409 3434 
Q 2688 3291 2919 2981 
L 2919 3500 
L 4044 3500 
L 4044 353 
Q 4044 -491 3511 -936 
Q 2978 -1381 1966 -1381 
Q 1638 -1381 1331 -1331 
Q 1025 -1281 716 -1178 
L 716 -306 
Q 1009 -475 1290 -558 
Q 1572 -641 1856 -641 
Q 2406 -641 2662 -400 
Q 2919 -159 2919 353 
L 2919 594 
z
M 2181 2772 
Q 1834 2772 1640 2515 
Q 1447 2259 1447 1791 
Q 1447 1309 1634 1061 
Q 1822 813 2181 813 
Q 2531 813 2725 1069 
Q 2919 1325 2919 1791 
Q 2919 2259 2725 2515 
Q 2531 2772 2181 2772 
z
" transform="scale(0.015625)"/>
      <path id="DejaVuSans-Bold-68" d="M 4056 2131 
L 4056 0 
L 2931 0 
L 2931 347 
L 2931 1625 
Q 2931 2084 2911 2256 
Q 2891 2428 2841 2509 
Q 2775 2619 2662 2680 
Q 2550 2741 2406 2741 
Q 2056 2741 1856 2470 
Q 1656 2200 1656 1722 
L 1656 0 
L 538 0 
L 538 4863 
L 1656 4863 
L 1656 2988 
Q 1909 3294 2193 3439 
Q 2478 3584 2822 3584 
Q 3428 3584 3742 3212 
Q 4056 2841 4056 2131 
z
" transform="scale(0.015625)"/>
      <path id="DejaVuSans-Bold-52" d="M 2297 2597 
Q 2675 2597 2839 2737 
Q 3003 2878 3003 3200 
Q 3003 3519 2839 3656 
Q 2675 3794 2297 3794 
L 1791 3794 
L 1791 2597 
L 2297 2597 
z
M 1791 1766 
L 1791 0 
L 588 0 
L 588 4666 
L 2425 4666 
Q 3347 4666 3776 4356 
Q 4206 4047 4206 3378 
Q 4206 2916 3982 2619 
Q 3759 2322 3309 2181 
Q 3556 2125 3751 1926 
Q 3947 1728 4147 1325 
L 4800 0 
L 3519 0 
L 2950 1159 
Q 2778 1509 2601 1637 
Q 2425 1766 2131 1766 
L 1791 1766 
z
" transform="scale(0.015625)"/>
      <path id="DejaVuSans-Bold-73" d="M 3272 3391 
L 3272 2541 
Q 2913 2691 2578 2766 
Q 2244 2841 1947 2841 
Q 1628 2841 1473 2761 
Q 1319 2681 1319 2516 
Q 1319 2381 1436 2309 
Q 1553 2238 1856 2203 
L 2053 2175 
Q 2913 2066 3209 1816 
Q 3506 1566 3506 1031 
Q 3506 472 3093 190 
Q 2681 -91 1863 -91 
Q 1516 -91 1145 -36 
Q 775 19 384 128 
L 384 978 
Q 719 816 1070 734 
Q 1422 653 1784 653 
Q 2113 653 2278 743 
Q 2444 834 2444 1013 
Q 2444 1163 2330 1236 
Q 2216 1309 1875 1350 
L 1678 1375 
Q 931 1469 631 1722 
Q 331 1975 331 2491 
Q 331 3047 712 3315 
Q 1094 3584 1881 3584 
Q 2191 3584 2531 3537 
Q 2872 3491 3272 3391 
z
" transform="scale(0.015625)"/>
      <path id="DejaVuSans-Bold-6b" d="M 538 4863 
L 1656 4863 
L 1656 2216 
L 2944 3500 
L 4244 3500 
L 2534 1894 
L 4378 0 
L 3022 0 
L 1656 1459 
L 1656 0 
L 538 0 
L 538 4863 
z
" transform="scale(0.015625)"/>
      <path id="DejaVuSans-Bold-65" d="M 4031 1759 
L 4031 1441 
L 1416 1441 
Q 1456 1047 1700 850 
Q 1944 653 2381 653 
Q 2734 653 3104 758 
Q 3475 863 3866 1075 
L 3866 213 
Q 3469 63 3072 -14 
Q 2675 -91 2278 -91 
Q 1328 -91 801 392 
Q 275 875 275 1747 
Q 275 2603 792 3093 
Q 1309 3584 2216 3584 
Q 3041 3584 3536 3087 
Q 4031 2591 4031 1759 
z
M 2881 2131 
Q 2881 2450 2695 2645 
Q 2509 2841 2209 2841 
Q 1884 2841 1681 2658 
Q 1478 2475 1428 2131 
L 2881 2131 
z
" transform="scale(0.015625)"/>
      <path id="DejaVuSans-Bold-64" d="M 2919 2988 
L 2919 4863 
L 4044 4863 
L 4044 0 
L 2919 0 
L 2919 506 
Q 2688 197 2409 53 
Q 2131 -91 1766 -91 
Q 1119 -91 703 423 
Q 288 938 288 1747 
Q 288 2556 703 3070 
Q 1119 3584 1766 3584 
Q 2128 3584 2408 3439 
Q 2688 3294 2919 2988 
z
M 2181 722 
Q 2541 722 2730 984 
Q 2919 1247 2919 1747 
Q 2919 2247 2730 2509 
Q 2541 2772 2181 2772 
Q 1825 2772 1636 2509 
Q 1447 2247 1447 1747 
Q 1447 1247 1636 984 
Q 1825 722 2181 722 
z
" transform="scale(0.015625)"/>
      <path id="DejaVuSans-Bold-63" d="M 3366 3391 
L 3366 2478 
Q 3138 2634 2908 2709 
Q 2678 2784 2431 2784 
Q 1963 2784 1702 2511 
Q 1441 2238 1441 1747 
Q 1441 1256 1702 982 
Q 1963 709 2431 709 
Q 2694 709 2930 787 
Q 3166 866 3366 1019 
L 3366 103 
Q 3103 6 2833 -42 
Q 2563 -91 2291 -91 
Q 1344 -91 809 395 
Q 275 881 275 1747 
Q 275 2613 809 3098 
Q 1344 3584 2291 3584 
Q 2566 3584 2833 3536 
Q 3100 3488 3366 3391 
z
" transform="scale(0.015625)"/>
     </defs>
     <use xlink:href="#DejaVuSans-Bold-53"/>
     <use xlink:href="#DejaVuSans-Bold-48" transform="translate(72.021484 0)"/>
     <use xlink:href="#DejaVuSans-Bold-41" transform="translate(155.712891 0)"/>
     <use xlink:href="#DejaVuSans-Bold-50" transform="translate(233.105469 0)"/>
     <use xlink:href="#DejaVuSans-Bold-20" transform="translate(306.396484 0)"/>
     <use xlink:href="#DejaVuSans-Bold-45" transform="translate(341.210938 0)"/>
     <use xlink:href="#DejaVuSans-Bold-78" transform="translate(409.521484 0)"/>
     <use xlink:href="#DejaVuSans-Bold-70" transform="translate(474.023438 0)"/>
     <use xlink:href="#DejaVuSans-Bold-6c" transform="translate(545.605469 0)"/>
     <use xlink:href="#DejaVuSans-Bold-61" transform="translate(579.882812 0)"/>
     <use xlink:href="#DejaVuSans-Bold-6e" transform="translate(647.363281 0)"/>
     <use xlink:href="#DejaVuSans-Bold-61" transform="translate(718.554688 0)"/>
     <use xlink:href="#DejaVuSans-Bold-74" transform="translate(786.035156 0)"/>
     <use xlink:href="#DejaVuSans-Bold-69" transform="translate(833.837891 0)"/>
     <use xlink:href="#DejaVuSans-Bold-6f" transform="translate(868.115234 0)"/>
     <use xlink:href="#DejaVuSans-Bold-6e" transform="translate(936.816406 0)"/>
     <use xlink:href="#DejaVuSans-Bold-20" transform="translate(1008.007812 0)"/>
     <use xlink:href="#DejaVuSans-Bold-66" transform="translate(1042.822266 0)"/>
     <use xlink:href="#DejaVuSans-Bold-6f" transform="translate(1086.328125 0)"/>
     <use xlink:href="#DejaVuSans-Bold-72" transform="translate(1155.029297 0)"/>
     <use xlink:href="#DejaVuSans-Bold-20" transform="translate(1204.345703 0)"/>
     <use xlink:href="#DejaVuSans-Bold-48" transform="translate(1239.160156 0)"/>
     <use xlink:href="#DejaVuSans-Bold-69" transform="translate(1322.851562 0)"/>
     <use xlink:href="#DejaVuSans-Bold-67" transform="translate(1357.128906 0)"/>
     <use xlink:href="#DejaVuSans-Bold-68" transform="translate(1428.710938 0)"/>
     <use xlink:href="#DejaVuSans-Bold-20" transform="translate(1499.902344 0)"/>
     <use xlink:href="#DejaVuSans-Bold-52" transform="translate(1534.716797 0)"/>
     <use xlink:href="#DejaVuSans-Bold-69" transform="translate(1611.71875 0)"/>
     <use xlink:href="#DejaVuSans-Bold-73" transform="translate(1645.996094 0)"/>
     <use xlink:href="#DejaVuSans-Bold-6b" transform="translate(1705.517578 0)"/>
     <use xlink:href="#DejaVuSans-Bold-20" transform="translate(1772.021484 0)"/>
     <use xlink:href="#DejaVuSans-Bold-50" transform="translate(1806.835938 0)"/>
     <use xlink:href="#DejaVuSans-Bold-72" transform="translate(1880.126953 0)"/>
     <use xlink:href="#DejaVuSans-Bold-65" transform="translate(1929.443359 0)"/>
     <use xlink:href="#DejaVuSans-Bold-64" transform="translate(1997.265625 0)"/>
     <use xlink:href="#DejaVuSans-Bold-69" transform="translate(2068.847656 0)"/>
     <use xlink:href="#DejaVuSans-Bold-63" transform="translate(2103.125 0)"/>
     <use xlink:href="#DejaVuSans-Bold-74" transform="translate(2162.402344 0)"/>
     <use xlink:href="#DejaVuSans-Bold-69" transform="translate(2210.205078 0)"/>
     <use xlink:href="#DejaVuSans-Bold-6f" transform="translate(2244.482422 0)"/>
     <use xlink:href="#DejaVuSans-Bold-6e" transform="translate(2313.183594 0)"/>
    </g>
    <!-- Base value: 0.221, Prediction: 0.602 -->
    <g transform="translate(273.457813 29.84925) scale(0.12 -0.12)">
     <defs>
      <path id="DejaVuSans-Bold-42" d="M 2456 2859 
Q 2741 2859 2887 2984 
Q 3034 3109 3034 3353 
Q 3034 3594 2887 3720 
Q 2741 3847 2456 3847 
L 1791 3847 
L 1791 2859 
L 2456 2859 
z
M 2497 819 
Q 2859 819 3042 972 
Q 3225 1125 3225 1434 
Q 3225 1738 3044 1889 
Q 2863 2041 2497 2041 
L 1791 2041 
L 1791 819 
L 2497 819 
z
M 3616 2497 
Q 4003 2384 4215 2081 
Q 4428 1778 4428 1338 
Q 4428 663 3972 331 
Q 3516 0 2584 0 
L 588 0 
L 588 4666 
L 2394 4666 
Q 3366 4666 3802 4372 
Q 4238 4078 4238 3431 
Q 4238 3091 4078 2852 
Q 3919 2613 3616 2497 
z
" transform="scale(0.015625)"/>
      <path id="DejaVuSans-Bold-76" d="M 97 3500 
L 1216 3500 
L 2088 1081 
L 2956 3500 
L 4078 3500 
L 2700 0 
L 1472 0 
L 97 3500 
z
" transform="scale(0.015625)"/>
      <path id="DejaVuSans-Bold-75" d="M 500 1363 
L 500 3500 
L 1625 3500 
L 1625 3150 
Q 1625 2866 1622 2436 
Q 1619 2006 1619 1863 
Q 1619 1441 1641 1255 
Q 1663 1069 1716 984 
Q 1784 875 1895 815 
Q 2006 756 2150 756 
Q 2500 756 2700 1025 
Q 2900 1294 2900 1772 
L 2900 3500 
L 4019 3500 
L 4019 0 
L 2900 0 
L 2900 506 
Q 2647 200 2364 54 
Q 2081 -91 1741 -91 
Q 1134 -91 817 281 
Q 500 653 500 1363 
z
" transform="scale(0.015625)"/>
      <path id="DejaVuSans-Bold-3a" d="M 716 3500 
L 1844 3500 
L 1844 2291 
L 716 2291 
L 716 3500 
z
M 716 1209 
L 1844 1209 
L 1844 0 
L 716 0 
L 716 1209 
z
" transform="scale(0.015625)"/>
      <path id="DejaVuSans-Bold-30" d="M 2944 2338 
Q 2944 3213 2780 3570 
Q 2616 3928 2228 3928 
Q 1841 3928 1675 3570 
Q 1509 3213 1509 2338 
Q 1509 1453 1675 1090 
Q 1841 728 2228 728 
Q 2613 728 2778 1090 
Q 2944 1453 2944 2338 
z
M 4147 2328 
Q 4147 1169 3647 539 
Q 3147 -91 2228 -91 
Q 1306 -91 806 539 
Q 306 1169 306 2328 
Q 306 3491 806 4120 
Q 1306 4750 2228 4750 
Q 3147 4750 3647 4120 
Q 4147 3491 4147 2328 
z
" transform="scale(0.015625)"/>
      <path id="DejaVuSans-Bold-2e" d="M 653 1209 
L 1778 1209 
L 1778 0 
L 653 0 
L 653 1209 
z
" transform="scale(0.015625)"/>
      <path id="DejaVuSans-Bold-32" d="M 1844 884 
L 3897 884 
L 3897 0 
L 506 0 
L 506 884 
L 2209 2388 
Q 2438 2594 2547 2791 
Q 2656 2988 2656 3200 
Q 2656 3528 2436 3728 
Q 2216 3928 1850 3928 
Q 1569 3928 1234 3808 
Q 900 3688 519 3450 
L 519 4475 
Q 925 4609 1322 4679 
Q 1719 4750 2100 4750 
Q 2938 4750 3402 4381 
Q 3866 4013 3866 3353 
Q 3866 2972 3669 2642 
Q 3472 2313 2841 1759 
L 1844 884 
z
" transform="scale(0.015625)"/>
      <path id="DejaVuSans-Bold-31" d="M 750 831 
L 1813 831 
L 1813 3847 
L 722 3622 
L 722 4441 
L 1806 4666 
L 2950 4666 
L 2950 831 
L 4013 831 
L 4013 0 
L 750 0 
L 750 831 
z
" transform="scale(0.015625)"/>
      <path id="DejaVuSans-Bold-2c" d="M 653 1209 
L 1778 1209 
L 1778 256 
L 1006 -909 
L 341 -909 
L 653 256 
L 653 1209 
z
" transform="scale(0.015625)"/>
      <path id="DejaVuSans-Bold-36" d="M 2316 2303 
Q 2000 2303 1842 2098 
Q 1684 1894 1684 1484 
Q 1684 1075 1842 870 
Q 2000 666 2316 666 
Q 2634 666 2792 870 
Q 2950 1075 2950 1484 
Q 2950 1894 2792 2098 
Q 2634 2303 2316 2303 
z
M 3803 4544 
L 3803 3681 
Q 3506 3822 3243 3889 
Q 2981 3956 2731 3956 
Q 2194 3956 1894 3657 
Q 1594 3359 1544 2772 
Q 1750 2925 1990 3001 
Q 2231 3078 2516 3078 
Q 3231 3078 3670 2659 
Q 4109 2241 4109 1563 
Q 4109 813 3618 361 
Q 3128 -91 2303 -91 
Q 1394 -91 895 523 
Q 397 1138 397 2266 
Q 397 3422 980 4083 
Q 1563 4744 2578 4744 
Q 2900 4744 3203 4694 
Q 3506 4644 3803 4544 
z
" transform="scale(0.015625)"/>
     </defs>
     <use xlink:href="#DejaVuSans-Bold-42"/>
     <use xlink:href="#DejaVuSans-Bold-61" transform="translate(76.220703 0)"/>
     <use xlink:href="#DejaVuSans-Bold-73" transform="translate(143.701172 0)"/>
     <use xlink:href="#DejaVuSans-Bold-65" transform="translate(203.222656 0)"/>
     <use xlink:href="#DejaVuSans-Bold-20" transform="translate(271.044922 0)"/>
     <use xlink:href="#DejaVuSans-Bold-76" transform="translate(305.859375 0)"/>
     <use xlink:href="#DejaVuSans-Bold-61" transform="translate(371.044922 0)"/>
     <use xlink:href="#DejaVuSans-Bold-6c" transform="translate(438.525391 0)"/>
     <use xlink:href="#DejaVuSans-Bold-75" transform="translate(472.802734 0)"/>
     <use xlink:href="#DejaVuSans-Bold-65" transform="translate(543.994141 0)"/>
     <use xlink:href="#DejaVuSans-Bold-3a" transform="translate(611.816406 0)"/>
     <use xlink:href="#DejaVuSans-Bold-20" transform="translate(651.806641 0)"/>
     <use xlink:href="#DejaVuSans-Bold-30" transform="translate(686.621094 0)"/>
     <use xlink:href="#DejaVuSans-Bold-2e" transform="translate(756.201172 0)"/>
     <use xlink:href="#DejaVuSans-Bold-32" transform="translate(794.189453 0)"/>
     <use xlink:href="#DejaVuSans-Bold-32" transform="translate(863.769531 0)"/>
     <use xlink:href="#DejaVuSans-Bold-31" transform="translate(933.349609 0)"/>
     <use xlink:href="#DejaVuSans-Bold-2c" transform="translate(1002.929688 0)"/>
     <use xlink:href="#DejaVuSans-Bold-20" transform="translate(1040.917969 0)"/>
     <use xlink:href="#DejaVuSans-Bold-50" transform="translate(1075.732422 0)"/>
     <use xlink:href="#DejaVuSans-Bold-72" transform="translate(1149.023438 0)"/>
     <use xlink:href="#DejaVuSans-Bold-65" transform="translate(1198.339844 0)"/>
     <use xlink:href="#DejaVuSans-Bold-64" transform="translate(1266.162109 0)"/>
     <use xlink:href="#DejaVuSans-Bold-69" transform="translate(1337.744141 0)"/>
     <use xlink:href="#DejaVuSans-Bold-63" transform="translate(1372.021484 0)"/>
     <use xlink:href="#DejaVuSans-Bold-74" transform="translate(1431.298828 0)"/>
     <use xlink:href="#DejaVuSans-Bold-69" transform="translate(1479.101562 0)"/>
     <use xlink:href="#DejaVuSans-Bold-6f" transform="translate(1513.378906 0)"/>
     <use xlink:href="#DejaVuSans-Bold-6e" transform="translate(1582.080078 0)"/>
     <use xlink:href="#DejaVuSans-Bold-3a" transform="translate(1653.271484 0)"/>
     <use xlink:href="#DejaVuSans-Bold-20" transform="translate(1693.261719 0)"/>
     <use xlink:href="#DejaVuSans-Bold-30" transform="translate(1728.076172 0)"/>
     <use xlink:href="#DejaVuSans-Bold-2e" transform="translate(1797.65625 0)"/>
     <use xlink:href="#DejaVuSans-Bold-36" transform="translate(1835.644531 0)"/>
     <use xlink:href="#DejaVuSans-Bold-30" transform="translate(1905.224609 0)"/>
     <use xlink:href="#DejaVuSans-Bold-32" transform="translate(1974.804688 0)"/>
    </g>
   </g>
   <g id="legend_1">
    <g id="patch_22">
     <path d="M 593.301563 522.31325 
L 698.459375 522.31325 
Q 700.459375 522.31325 700.459375 520.31325 
L 700.459375 491.957 
Q 700.459375 489.957 698.459375 489.957 
L 593.301563 489.957 
Q 591.301563 489.957 591.301563 491.957 
L 591.301563 520.31325 
Q 591.301563 522.31325 593.301563 522.31325 
z
" style="fill: #ffffff; opacity: 0.8; stroke: #cccccc; stroke-linejoin: miter"/>
    </g>
    <g id="patch_23">
     <path d="M 595.301563 501.555438 
L 615.301563 501.555438 
L 615.301563 494.555438 
L 595.301563 494.555438 
z
" style="fill: #ff4444"/>
    </g>
    <g id="text_25">
     <!-- Increases risk -->
     <g transform="translate(623.301563 501.555438) scale(0.1 -0.1)">
      <defs>
       <path id="DejaVuSans-49" d="M 628 4666 
L 1259 4666 
L 1259 0 
L 628 0 
L 628 4666 
z
" transform="scale(0.015625)"/>
      </defs>
      <use xlink:href="#DejaVuSans-49"/>
      <use xlink:href="#DejaVuSans-6e" transform="translate(29.492188 0)"/>
      <use xlink:href="#DejaVuSans-63" transform="translate(92.871094 0)"/>
      <use xlink:href="#DejaVuSans-72" transform="translate(147.851562 0)"/>
      <use xlink:href="#DejaVuSans-65" transform="translate(186.714844 0)"/>
      <use xlink:href="#DejaVuSans-61" transform="translate(248.238281 0)"/>
      <use xlink:href="#DejaVuSans-73" transform="translate(309.517578 0)"/>
      <use xlink:href="#DejaVuSans-65" transform="translate(361.617188 0)"/>
      <use xlink:href="#DejaVuSans-73" transform="translate(423.140625 0)"/>
      <use xlink:href="#DejaVuSans-20" transform="translate(475.240234 0)"/>
      <use xlink:href="#DejaVuSans-72" transform="translate(507.027344 0)"/>
      <use xlink:href="#DejaVuSans-69" transform="translate(548.140625 0)"/>
      <use xlink:href="#DejaVuSans-73" transform="translate(575.923828 0)"/>
      <use xlink:href="#DejaVuSans-6b" transform="translate(628.023438 0)"/>
     </g>
    </g>
    <g id="patch_24">
     <path d="M 595.301563 516.233563 
L 615.301563 516.233563 
L 615.301563 509.233563 
L 595.301563 509.233563 
z
" style="fill: #4444ff"/>
    </g>
    <g id="text_26">
     <!-- Decreases risk -->
     <g transform="translate(623.301563 516.233563) scale(0.1 -0.1)">
      <defs>
       <path id="DejaVuSans-44" d="M 1259 4147 
L 1259 519 
L 2022 519 
Q 2988 519 3436 956 
Q 3884 1394 3884 2338 
Q 3884 3275 3436 3711 
Q 2988 4147 2022 4147 
L 1259 4147 
z
M 628 4666 
L 1925 4666 
Q 3281 4666 3915 4102 
Q 4550 3538 4550 2338 
Q 4550 1131 3912 565 
Q 3275 0 1925 0 
L 628 0 
L 628 4666 
z
" transform="scale(0.015625)"/>
      </defs>
      <use xlink:href="#DejaVuSans-44"/>
      <use xlink:href="#DejaVuSans-65" transform="translate(77.001953 0)"/>
      <use xlink:href="#DejaVuSans-63" transform="translate(138.525391 0)"/>
      <use xlink:href="#DejaVuSans-72" transform="translate(193.505859 0)"/>
      <use xlink:href="#DejaVuSans-65" transform="translate(232.369141 0)"/>
      <use xlink:href="#DejaVuSans-61" transform="translate(293.892578 0)"/>
      <use xlink:href="#DejaVuSans-73" transform="translate(355.171875 0)"/>
      <use xlink:href="#DejaVuSans-65" transform="translate(407.271484 0)"/>
      <use xlink:href="#DejaVuSans-73" transform="translate(468.794922 0)"/>
      <use xlink:href="#DejaVuSans-20" transform="translate(520.894531 0)"/>
      <use xlink:href="#DejaVuSans-72" transform="translate(552.681641 0)"/>
      <use xlink:href="#DejaVuSans-69" transform="translate(593.794922 0)"/>
      <use xlink:href="#DejaVuSans-73" transform="translate(621.578125 0)"/>
      <use xlink:href="#DejaVuSans-6b" transform="translate(673.677734 0)"/>
     </g>
    </g>
   </g>
  </g>
 </g>
 <defs>
  <clipPath id="p1408614a4f">
   <rect x="86.779375" y="35.84925" width="618.68" height="491.464"/>
  </clipPath>
 </defs>
</svg>
