<?xml version="1.0" encoding="utf-8" standalone="no"?>
<!DOCTYPE svg PUBLIC "-//W3C//DTD SVG 1.1//EN"
  "http://www.w3.org/Graphics/SVG/1.1/DTD/svg11.dtd">
<svg xmlns:xlink="http://www.w3.org/1999/xlink" width="424.560156pt" height="351.034375pt" viewBox="0 0 424.560156 351.034375" xmlns="http://www.w3.org/2000/svg" version="1.1">
 <metadata>
  <rdf:RDF xmlns:dc="http://purl.org/dc/elements/1.1/" xmlns:cc="http://creativecommons.org/ns#" xmlns:rdf="http://www.w3.org/1999/02/22-rdf-syntax-ns#">
   <cc:Work>
    <dc:type rdf:resource="http://purl.org/dc/dcmitype/StillImage"/>
    <dc:date>2025-11-26T19:13:19.775376</dc:date>
    <dc:format>image/svg+xml</dc:format>
    <dc:creator>
     <cc:Agent>
      <dc:title>Matplotlib v3.10.7, https://matplotlib.org/</dc:title>
     </cc:Agent>
    </dc:creator>
   </cc:Work>
  </rdf:RDF>
 </metadata>
 <defs>
  <style type="text/css">*{stroke-linejoin: round; stroke-linecap: butt}</style>
 </defs>
 <g id="figure_1">
  <g id="patch_1">
   <path d="M 0 351.034375 
L 424.560156 351.034375 
L 424.560156 0 
L 0 0 
z
" style="fill: #ffffff"/>
  </g>
  <g id="axes_1">
   <g id="patch_2">
    <path d="M 43.15875 313.478125 
L 410.20375 313.478125 
L 410.20375 26.318125 
L 43.15875 26.318125 
z
" style="fill: #ffffff"/>
   </g>
   <g id="matplotlib.axis_1">
    <g id="xtick_1">
     <g id="line2d_1">
      <path d="M 43.15875 313.478125 
L 43.15875 26.318125 
" clip-path="url(#pf6b5a69635)" style="fill: none; stroke-dasharray: 2.96,1.28; stroke-dashoffset: 0; stroke: #b0b0b0; stroke-opacity: 0.3; stroke-width: 0.8"/>
     </g>
     <g id="line2d_2">
      <defs>
       <path id="m9410d8da55" d="M 0 0 
L 0 3.5 
" style="stroke: #000000; stroke-width: 0.8"/>
      </defs>
      <g>
       <use xlink:href="#m9410d8da55" x="43.15875" y="313.478125" style="stroke: #000000; stroke-width: 0.8"/>
      </g>
     </g>
     <g id="text_1">
      <!-- 0.0 -->
      <g transform="translate(36.002344 327.316719) scale(0.09 -0.09)">
       <defs>
        <path id="DejaVuSans-30" d="M 2034 4250 
Q 1547 4250 1301 3770 
Q 1056 3291 1056 2328 
Q 1056 1369 1301 889 
Q 1547 409 2034 409 
Q 2525 409 2770 889 
Q 3016 1369 3016 2328 
Q 3016 3291 2770 3770 
Q 2525 4250 2034 4250 
z
M 2034 4750 
Q 2819 4750 3233 4129 
Q 3647 3509 3647 2328 
Q 3647 1150 3233 529 
Q 2819 -91 2034 -91 
Q 1250 -91 836 529 
Q 422 1150 422 2328 
Q 422 3509 836 4129 
Q 1250 4750 2034 4750 
z
" transform="scale(0.015625)"/>
        <path id="DejaVuSans-2e" d="M 684 794 
L 1344 794 
L 1344 0 
L 684 0 
L 684 794 
z
" transform="scale(0.015625)"/>
       </defs>
       <use xlink:href="#DejaVuSans-30"/>
       <use xlink:href="#DejaVuSans-2e" transform="translate(63.623047 0)"/>
       <use xlink:href="#DejaVuSans-30" transform="translate(95.410156 0)"/>
      </g>
     </g>
    </g>
    <g id="xtick_2">
     <g id="line2d_3">
      <path d="M 116.56775 313.478125 
L 116.56775 26.318125 
" clip-path="url(#pf6b5a69635)" style="fill: none; stroke-dasharray: 2.96,1.28; stroke-dashoffset: 0; stroke: #b0b0b0; stroke-opacity: 0.3; stroke-width: 0.8"/>
     </g>
     <g id="line2d_4">
      <g>
       <use xlink:href="#m9410d8da55" x="116.56775" y="313.478125" style="stroke: #000000; stroke-width: 0.8"/>
      </g>
     </g>
     <g id="text_2">
      <!-- 0.2 -->
      <g transform="translate(109.411344 327.316719) scale(0.09 -0.09)">
       <defs>
        <path id="DejaVuSans-32" d="M 1228 531 
L 3431 531 
L 3431 0 
L 469 0 
L 469 531 
Q 828 903 1448 1529 
Q 2069 2156 2228 2338 
Q 2531 2678 2651 2914 
Q 2772 3150 2772 3378 
Q 2772 3750 2511 3984 
Q 2250 4219 1831 4219 
Q 1534 4219 1204 4116 
Q 875 4013 500 3803 
L 500 4441 
Q 881 4594 1212 4672 
Q 1544 4750 1819 4750 
Q 2544 4750 2975 4387 
Q 3406 4025 3406 3419 
Q 3406 3131 3298 2873 
Q 3191 2616 2906 2266 
Q 2828 2175 2409 1742 
Q 1991 1309 1228 531 
z
" transform="scale(0.015625)"/>
       </defs>
       <use xlink:href="#DejaVuSans-30"/>
       <use xlink:href="#DejaVuSans-2e" transform="translate(63.623047 0)"/>
       <use xlink:href="#DejaVuSans-32" transform="translate(95.410156 0)"/>
      </g>
     </g>
    </g>
    <g id="xtick_3">
     <g id="line2d_5">
      <path d="M 189.97675 313.478125 
L 189.97675 26.318125 
" clip-path="url(#pf6b5a69635)" style="fill: none; stroke-dasharray: 2.96,1.28; stroke-dashoffset: 0; stroke: #b0b0b0; stroke-opacity: 0.3; stroke-width: 0.8"/>
     </g>
     <g id="line2d_6">
      <g>
       <use xlink:href="#m9410d8da55" x="189.97675" y="313.478125" style="stroke: #000000; stroke-width: 0.8"/>
      </g>
     </g>
     <g id="text_3">
      <!-- 0.4 -->
      <g transform="translate(182.820344 327.316719) scale(0.09 -0.09)">
       <defs>
        <path id="DejaVuSans-34" d="M 2419 4116 
L 825 1625 
L 2419 1625 
L 2419 4116 
z
M 2253 4666 
L 3047 4666 
L 3047 1625 
L 3713 1625 
L 3713 1100 
L 3047 1100 
L 3047 0 
L 2419 0 
L 2419 1100 
L 313 1100 
L 313 1709 
L 2253 4666 
z
" transform="scale(0.015625)"/>
       </defs>
       <use xlink:href="#DejaVuSans-30"/>
       <use xlink:href="#DejaVuSans-2e" transform="translate(63.623047 0)"/>
       <use xlink:href="#DejaVuSans-34" transform="translate(95.410156 0)"/>
      </g>
     </g>
    </g>
    <g id="xtick_4">
     <g id="line2d_7">
      <path d="M 263.38575 313.478125 
L 263.38575 26.318125 
" clip-path="url(#pf6b5a69635)" style="fill: none; stroke-dasharray: 2.96,1.28; stroke-dashoffset: 0; stroke: #b0b0b0; stroke-opacity: 0.3; stroke-width: 0.8"/>
     </g>
     <g id="line2d_8">
      <g>
       <use xlink:href="#m9410d8da55" x="263.38575" y="313.478125" style="stroke: #000000; stroke-width: 0.8"/>
      </g>
     </g>
     <g id="text_4">
      <!-- 0.6 -->
      <g transform="translate(256.229344 327.316719) scale(0.09 -0.09)">
       <defs>
        <path id="DejaVuSans-36" d="M 2113 2584 
Q 1688 2584 1439 2293 
Q 1191 2003 1191 1497 
Q 1191 994 1439 701 
Q 1688 409 2113 409 
Q 2538 409 2786 701 
Q 3034 994 3034 1497 
Q 3034 2003 2786 2293 
Q 2538 2584 2113 2584 
z
M 3366 4563 
L 3366 3988 
Q 3128 4100 2886 4159 
Q 2644 4219 2406 4219 
Q 1781 4219 1451 3797 
Q 1122 3375 1075 2522 
Q 1259 2794 1537 2939 
Q 1816 3084 2150 3084 
Q 2853 3084 3261 2657 
Q 3669 2231 3669 1497 
Q 3669 778 3244 343 
Q 2819 -91 2113 -91 
Q 1303 -91 875 529 
Q 447 1150 447 2328 
Q 447 3434 972 4092 
Q 1497 4750 2381 4750 
Q 2619 4750 2861 4703 
Q 3103 4656 3366 4563 
z
" transform="scale(0.015625)"/>
       </defs>
       <use xlink:href="#DejaVuSans-30"/>
       <use xlink:href="#DejaVuSans-2e" transform="translate(63.623047 0)"/>
       <use xlink:href="#DejaVuSans-36" transform="translate(95.410156 0)"/>
      </g>
     </g>
    </g>
    <g id="xtick_5">
     <g id="line2d_9">
      <path d="M 336.79475 313.478125 
L 336.79475 26.318125 
" clip-path="url(#pf6b5a69635)" style="fill: none; stroke-dasharray: 2.96,1.28; stroke-dashoffset: 0; stroke: #b0b0b0; stroke-opacity: 0.3; stroke-width: 0.8"/>
     </g>
     <g id="line2d_10">
      <g>
       <use xlink:href="#m9410d8da55" x="336.79475" y="313.478125" style="stroke: #000000; stroke-width: 0.8"/>
      </g>
     </g>
     <g id="text_5">
      <!-- 0.8 -->
      <g transform="translate(329.638344 327.316719) scale(0.09 -0.09)">
       <defs>
        <path id="DejaVuSans-38" d="M 2034 2216 
Q 1584 2216 1326 1975 
Q 1069 1734 1069 1313 
Q 1069 891 1326 650 
Q 1584 409 2034 409 
Q 2484 409 2743 651 
Q 3003 894 3003 1313 
Q 3003 1734 2745 1975 
Q 2488 2216 2034 2216 
z
M 1403 2484 
Q 997 2584 770 2862 
Q 544 3141 544 3541 
Q 544 4100 942 4425 
Q 1341 4750 2034 4750 
Q 2731 4750 3128 4425 
Q 3525 4100 3525 3541 
Q 3525 3141 3298 2862 
Q 3072 2584 2669 2484 
Q 3125 2378 3379 2068 
Q 3634 1759 3634 1313 
Q 3634 634 3220 271 
Q 2806 -91 2034 -91 
Q 1263 -91 848 271 
Q 434 634 434 1313 
Q 434 1759 690 2068 
Q 947 2378 1403 2484 
z
M 1172 3481 
Q 1172 3119 1398 2916 
Q 1625 2713 2034 2713 
Q 2441 2713 2670 2916 
Q 2900 3119 2900 3481 
Q 2900 3844 2670 4047 
Q 2441 4250 2034 4250 
Q 1625 4250 1398 4047 
Q 1172 3844 1172 3481 
z
" transform="scale(0.015625)"/>
       </defs>
       <use xlink:href="#DejaVuSans-30"/>
       <use xlink:href="#DejaVuSans-2e" transform="translate(63.623047 0)"/>
       <use xlink:href="#DejaVuSans-38" transform="translate(95.410156 0)"/>
      </g>
     </g>
    </g>
    <g id="xtick_6">
     <g id="line2d_11">
      <path d="M 410.20375 313.478125 
L 410.20375 26.318125 
" clip-path="url(#pf6b5a69635)" style="fill: none; stroke-dasharray: 2.96,1.28; stroke-dashoffset: 0; stroke: #b0b0b0; stroke-opacity: 0.3; stroke-width: 0.8"/>
     </g>
     <g id="line2d_12">
      <g>
       <use xlink:href="#m9410d8da55" x="410.20375" y="313.478125" style="stroke: #000000; stroke-width: 0.8"/>
      </g>
     </g>
     <g id="text_6">
      <!-- 1.0 -->
      <g transform="translate(403.047344 327.316719) scale(0.09 -0.09)">
       <defs>
        <path id="DejaVuSans-31" d="M 794 531 
L 1825 531 
L 1825 4091 
L 703 3866 
L 703 4441 
L 1819 4666 
L 2450 4666 
L 2450 531 
L 3481 531 
L 3481 0 
L 794 0 
L 794 531 
z
" transform="scale(0.015625)"/>
       </defs>
       <use xlink:href="#DejaVuSans-31"/>
       <use xlink:href="#DejaVuSans-2e" transform="translate(63.623047 0)"/>
       <use xlink:href="#DejaVuSans-30" transform="translate(95.410156 0)"/>
      </g>
     </g>
    </g>
    <g id="text_7">
     <!-- Recall -->
     <g transform="translate(210.272344 341.546719) scale(0.11 -0.11)">
      <defs>
       <path id="DejaVuSans-52" d="M 2841 2188 
Q 3044 2119 3236 1894 
Q 3428 1669 3622 1275 
L 4263 0 
L 3584 0 
L 2988 1197 
Q 2756 1666 2539 1819 
Q 2322 1972 1947 1972 
L 1259 1972 
L 1259 0 
L 628 0 
L 628 4666 
L 2053 4666 
Q 2853 4666 3247 4331 
Q 3641 3997 3641 3322 
Q 3641 2881 3436 2590 
Q 3231 2300 2841 2188 
z
M 1259 4147 
L 1259 2491 
L 2053 2491 
Q 2509 2491 2742 2702 
Q 2975 2913 2975 3322 
Q 2975 3731 2742 3939 
Q 2509 4147 2053 4147 
L 1259 4147 
z
" transform="scale(0.015625)"/>
       <path id="DejaVuSans-65" d="M 3597 1894 
L 3597 1613 
L 953 1613 
Q 991 1019 1311 708 
Q 1631 397 2203 397 
Q 2534 397 2845 478 
Q 3156 559 3463 722 
L 3463 178 
Q 3153 47 2828 -22 
Q 2503 -91 2169 -91 
Q 1331 -91 842 396 
Q 353 884 353 1716 
Q 353 2575 817 3079 
Q 1281 3584 2069 3584 
Q 2775 3584 3186 3129 
Q 3597 2675 3597 1894 
z
M 3022 2063 
Q 3016 2534 2758 2815 
Q 2500 3097 2075 3097 
Q 1594 3097 1305 2825 
Q 1016 2553 972 2059 
L 3022 2063 
z
" transform="scale(0.015625)"/>
       <path id="DejaVuSans-63" d="M 3122 3366 
L 3122 2828 
Q 2878 2963 2633 3030 
Q 2388 3097 2138 3097 
Q 1578 3097 1268 2742 
Q 959 2388 959 1747 
Q 959 1106 1268 751 
Q 1578 397 2138 397 
Q 2388 397 2633 464 
Q 2878 531 3122 666 
L 3122 134 
Q 2881 22 2623 -34 
Q 2366 -91 2075 -91 
Q 1284 -91 818 406 
Q 353 903 353 1747 
Q 353 2603 823 3093 
Q 1294 3584 2113 3584 
Q 2378 3584 2631 3529 
Q 2884 3475 3122 3366 
z
" transform="scale(0.015625)"/>
       <path id="DejaVuSans-61" d="M 2194 1759 
Q 1497 1759 1228 1600 
Q 959 1441 959 1056 
Q 959 750 1161 570 
Q 1363 391 1709 391 
Q 2188 391 2477 730 
Q 2766 1069 2766 1631 
L 2766 1759 
L 2194 1759 
z
M 3341 1997 
L 3341 0 
L 2766 0 
L 2766 531 
Q 2569 213 2275 61 
Q 1981 -91 1556 -91 
Q 1019 -91 701 211 
Q 384 513 384 1019 
Q 384 1609 779 1909 
Q 1175 2209 1959 2209 
L 2766 2209 
L 2766 2266 
Q 2766 2663 2505 2880 
Q 2244 3097 1772 3097 
Q 1472 3097 1187 3025 
Q 903 2953 641 2809 
L 641 3341 
Q 956 3463 1253 3523 
Q 1550 3584 1831 3584 
Q 2591 3584 2966 3190 
Q 3341 2797 3341 1997 
z
" transform="scale(0.015625)"/>
       <path id="DejaVuSans-6c" d="M 603 4863 
L 1178 4863 
L 1178 0 
L 603 0 
L 603 4863 
z
" transform="scale(0.015625)"/>
      </defs>
      <use xlink:href="#DejaVuSans-52"/>
      <use xlink:href="#DejaVuSans-65" transform="translate(64.982422 0)"/>
      <use xlink:href="#DejaVuSans-63" transform="translate(126.505859 0)"/>
      <use xlink:href="#DejaVuSans-61" transform="translate(181.486328 0)"/>
      <use xlink:href="#DejaVuSans-6c" transform="translate(242.765625 0)"/>
      <use xlink:href="#DejaVuSans-6c" transform="translate(270.548828 0)"/>
     </g>
    </g>
   </g>
   <g id="matplotlib.axis_2">
    <g id="ytick_1">
     <g id="line2d_13">
      <path d="M 43.15875 313.478125 
L 410.20375 313.478125 
" clip-path="url(#pf6b5a69635)" style="fill: none; stroke-dasharray: 2.96,1.28; stroke-dashoffset: 0; stroke: #b0b0b0; stroke-opacity: 0.3; stroke-width: 0.8"/>
     </g>
     <g id="line2d_14">
      <defs>
       <path id="mf45b62b84f" d="M 0 0 
L -3.5 0 
" style="stroke: #000000; stroke-width: 0.8"/>
      </defs>
      <g>
       <use xlink:href="#mf45b62b84f" x="43.15875" y="313.478125" style="stroke: #000000; stroke-width: 0.8"/>
      </g>
     </g>
     <g id="text_8">
      <!-- 0.0 -->
      <g transform="translate(21.845938 316.897422) scale(0.09 -0.09)">
       <use xlink:href="#DejaVuSans-30"/>
       <use xlink:href="#DejaVuSans-2e" transform="translate(63.623047 0)"/>
       <use xlink:href="#DejaVuSans-30" transform="translate(95.410156 0)"/>
      </g>
     </g>
    </g>
    <g id="ytick_2">
     <g id="line2d_15">
      <path d="M 43.15875 257.172243 
L 410.20375 257.172243 
" clip-path="url(#pf6b5a69635)" style="fill: none; stroke-dasharray: 2.96,1.28; stroke-dashoffset: 0; stroke: #b0b0b0; stroke-opacity: 0.3; stroke-width: 0.8"/>
     </g>
     <g id="line2d_16">
      <g>
       <use xlink:href="#mf45b62b84f" x="43.15875" y="257.172243" style="stroke: #000000; stroke-width: 0.8"/>
      </g>
     </g>
     <g id="text_9">
      <!-- 0.2 -->
      <g transform="translate(21.845938 260.59154) scale(0.09 -0.09)">
       <use xlink:href="#DejaVuSans-30"/>
       <use xlink:href="#DejaVuSans-2e" transform="translate(63.623047 0)"/>
       <use xlink:href="#DejaVuSans-32" transform="translate(95.410156 0)"/>
      </g>
     </g>
    </g>
    <g id="ytick_3">
     <g id="line2d_17">
      <path d="M 43.15875 200.86636 
L 410.20375 200.86636 
" clip-path="url(#pf6b5a69635)" style="fill: none; stroke-dasharray: 2.96,1.28; stroke-dashoffset: 0; stroke: #b0b0b0; stroke-opacity: 0.3; stroke-width: 0.8"/>
     </g>
     <g id="line2d_18">
      <g>
       <use xlink:href="#mf45b62b84f" x="43.15875" y="200.86636" style="stroke: #000000; stroke-width: 0.8"/>
      </g>
     </g>
     <g id="text_10">
      <!-- 0.4 -->
      <g transform="translate(21.845938 204.285657) scale(0.09 -0.09)">
       <use xlink:href="#DejaVuSans-30"/>
       <use xlink:href="#DejaVuSans-2e" transform="translate(63.623047 0)"/>
       <use xlink:href="#DejaVuSans-34" transform="translate(95.410156 0)"/>
      </g>
     </g>
    </g>
    <g id="ytick_4">
     <g id="line2d_19">
      <path d="M 43.15875 144.560478 
L 410.20375 144.560478 
" clip-path="url(#pf6b5a69635)" style="fill: none; stroke-dasharray: 2.96,1.28; stroke-dashoffset: 0; stroke: #b0b0b0; stroke-opacity: 0.3; stroke-width: 0.8"/>
     </g>
     <g id="line2d_20">
      <g>
       <use xlink:href="#mf45b62b84f" x="43.15875" y="144.560478" style="stroke: #000000; stroke-width: 0.8"/>
      </g>
     </g>
     <g id="text_11">
      <!-- 0.6 -->
      <g transform="translate(21.845938 147.979775) scale(0.09 -0.09)">
       <use xlink:href="#DejaVuSans-30"/>
       <use xlink:href="#DejaVuSans-2e" transform="translate(63.623047 0)"/>
       <use xlink:href="#DejaVuSans-36" transform="translate(95.410156 0)"/>
      </g>
     </g>
    </g>
    <g id="ytick_5">
     <g id="line2d_21">
      <path d="M 43.15875 88.254596 
L 410.20375 88.254596 
" clip-path="url(#pf6b5a69635)" style="fill: none; stroke-dasharray: 2.96,1.28; stroke-dashoffset: 0; stroke: #b0b0b0; stroke-opacity: 0.3; stroke-width: 0.8"/>
     </g>
     <g id="line2d_22">
      <g>
       <use xlink:href="#mf45b62b84f" x="43.15875" y="88.254596" style="stroke: #000000; stroke-width: 0.8"/>
      </g>
     </g>
     <g id="text_12">
      <!-- 0.8 -->
      <g transform="translate(21.845938 91.673892) scale(0.09 -0.09)">
       <use xlink:href="#DejaVuSans-30"/>
       <use xlink:href="#DejaVuSans-2e" transform="translate(63.623047 0)"/>
       <use xlink:href="#DejaVuSans-38" transform="translate(95.410156 0)"/>
      </g>
     </g>
    </g>
    <g id="ytick_6">
     <g id="line2d_23">
      <path d="M 43.15875 31.948713 
L 410.20375 31.948713 
" clip-path="url(#pf6b5a69635)" style="fill: none; stroke-dasharray: 2.96,1.28; stroke-dashoffset: 0; stroke: #b0b0b0; stroke-opacity: 0.3; stroke-width: 0.8"/>
     </g>
     <g id="line2d_24">
      <g>
       <use xlink:href="#mf45b62b84f" x="43.15875" y="31.948713" style="stroke: #000000; stroke-width: 0.8"/>
      </g>
     </g>
     <g id="text_13">
      <!-- 1.0 -->
      <g transform="translate(21.845938 35.36801) scale(0.09 -0.09)">
       <use xlink:href="#DejaVuSans-31"/>
       <use xlink:href="#DejaVuSans-2e" transform="translate(63.623047 0)"/>
       <use xlink:href="#DejaVuSans-30" transform="translate(95.410156 0)"/>
      </g>
     </g>
    </g>
    <g id="text_14">
     <!-- Precision -->
     <g transform="translate(15.558281 194.435859) rotate(-90) scale(0.11 -0.11)">
      <defs>
       <path id="DejaVuSans-50" d="M 1259 4147 
L 1259 2394 
L 2053 2394 
Q 2494 2394 2734 2622 
Q 2975 2850 2975 3272 
Q 2975 3691 2734 3919 
Q 2494 4147 2053 4147 
L 1259 4147 
z
M 628 4666 
L 2053 4666 
Q 2838 4666 3239 4311 
Q 3641 3956 3641 3272 
Q 3641 2581 3239 2228 
Q 2838 1875 2053 1875 
L 1259 1875 
L 1259 0 
L 628 0 
L 628 4666 
z
" transform="scale(0.015625)"/>
       <path id="DejaVuSans-72" d="M 2631 2963 
Q 2534 3019 2420 3045 
Q 2306 3072 2169 3072 
Q 1681 3072 1420 2755 
Q 1159 2438 1159 1844 
L 1159 0 
L 581 0 
L 581 3500 
L 1159 3500 
L 1159 2956 
Q 1341 3275 1631 3429 
Q 1922 3584 2338 3584 
Q 2397 3584 2469 3576 
Q 2541 3569 2628 3553 
L 2631 2963 
z
" transform="scale(0.015625)"/>
       <path id="DejaVuSans-69" d="M 603 3500 
L 1178 3500 
L 1178 0 
L 603 0 
L 603 3500 
z
M 603 4863 
L 1178 4863 
L 1178 4134 
L 603 4134 
L 603 4863 
z
" transform="scale(0.015625)"/>
       <path id="DejaVuSans-73" d="M 2834 3397 
L 2834 2853 
Q 2591 2978 2328 3040 
Q 2066 3103 1784 3103 
Q 1356 3103 1142 2972 
Q 928 2841 928 2578 
Q 928 2378 1081 2264 
Q 1234 2150 1697 2047 
L 1894 2003 
Q 2506 1872 2764 1633 
Q 3022 1394 3022 966 
Q 3022 478 2636 193 
Q 2250 -91 1575 -91 
Q 1294 -91 989 -36 
Q 684 19 347 128 
L 347 722 
Q 666 556 975 473 
Q 1284 391 1588 391 
Q 1994 391 2212 530 
Q 2431 669 2431 922 
Q 2431 1156 2273 1281 
Q 2116 1406 1581 1522 
L 1381 1569 
Q 847 1681 609 1914 
Q 372 2147 372 2553 
Q 372 3047 722 3315 
Q 1072 3584 1716 3584 
Q 2034 3584 2315 3537 
Q 2597 3491 2834 3397 
z
" transform="scale(0.015625)"/>
       <path id="DejaVuSans-6f" d="M 1959 3097 
Q 1497 3097 1228 2736 
Q 959 2375 959 1747 
Q 959 1119 1226 758 
Q 1494 397 1959 397 
Q 2419 397 2687 759 
Q 2956 1122 2956 1747 
Q 2956 2369 2687 2733 
Q 2419 3097 1959 3097 
z
M 1959 3584 
Q 2709 3584 3137 3096 
Q 3566 2609 3566 1747 
Q 3566 888 3137 398 
Q 2709 -91 1959 -91 
Q 1206 -91 779 398 
Q 353 888 353 1747 
Q 353 2609 779 3096 
Q 1206 3584 1959 3584 
z
" transform="scale(0.015625)"/>
       <path id="DejaVuSans-6e" d="M 3513 2113 
L 3513 0 
L 2938 0 
L 2938 2094 
Q 2938 2591 2744 2837 
Q 2550 3084 2163 3084 
Q 1697 3084 1428 2787 
Q 1159 2491 1159 1978 
L 1159 0 
L 581 0 
L 581 3500 
L 1159 3500 
L 1159 2956 
Q 1366 3272 1645 3428 
Q 1925 3584 2291 3584 
Q 2894 3584 3203 3211 
Q 3513 2838 3513 2113 
z
" transform="scale(0.015625)"/>
      </defs>
      <use xlink:href="#DejaVuSans-50"/>
      <use xlink:href="#DejaVuSans-72" transform="translate(58.552734 0)"/>
      <use xlink:href="#DejaVuSans-65" transform="translate(97.416016 0)"/>
      <use xlink:href="#DejaVuSans-63" transform="translate(158.939453 0)"/>
      <use xlink:href="#DejaVuSans-69" transform="translate(213.919922 0)"/>
      <use xlink:href="#DejaVuSans-73" transform="translate(241.703125 0)"/>
      <use xlink:href="#DejaVuSans-69" transform="translate(293.802734 0)"/>
      <use xlink:href="#DejaVuSans-6f" transform="translate(321.585938 0)"/>
      <use xlink:href="#DejaVuSans-6e" transform="translate(382.767578 0)"/>
     </g>
    </g>
   </g>
   <g id="line2d_25">
    <path d="M 410.20375 140.110917 
L 410.20375 58.254989 
L 409.953207 58.271277 
L 409.953207 53.440864 
L 409.702665 53.454432 
L 409.702665 51.469519 
L 409.452122 51.481944 
L 409.452122 50.477486 
L 408.951037 50.501195 
L 408.951037 49.826463 
L 408.700494 49.837938 
L 408.700494 49.499069 
L 408.449951 49.510355 
L 408.449951 49.340492 
L 408.199409 49.35169 
L 408.199409 48.155775 
L 407.948866 48.166265 
L 407.948866 47.994431 
L 407.698323 48.00483 
L 407.698323 47.832668 
L 406.946695 47.863631 
L 406.946695 47.69093 
L 406.195067 47.721697 
L 406.195067 47.201286 
L 405.443439 47.231212 
L 405.443439 47.056967 
L 405.192897 47.066861 
L 405.192897 46.89228 
L 404.942354 46.902079 
L 404.942354 46.72716 
L 404.691811 46.736864 
L 404.691811 46.386119 
L 404.441269 46.395617 
L 404.441269 45.867438 
L 401.434757 45.978418 
L 401.434757 45.800559 
L 401.184214 45.809775 
L 401.184214 45.095517 
L 400.933672 45.104293 
L 400.933672 44.925019 
L 400.683129 44.933693 
L 400.683129 44.574196 
L 399.680958 44.608089 
L 399.680958 44.246705 
L 399.430416 44.254975 
L 399.430416 44.073802 
L 399.179873 44.081967 
L 399.179873 43.900434 
L 398.177702 43.932735 
L 398.177702 43.567992 
L 397.426074 43.591625 
L 397.426074 43.22518 
L 396.924989 43.240512 
L 396.924989 42.872591 
L 395.672276 42.909899 
L 395.672276 42.724959 
L 395.421733 42.73233 
L 395.421733 42.547014 
L 395.17119 42.554273 
L 395.17119 42.182636 
L 394.670105 42.196693 
L 394.670105 42.010245 
L 394.419562 42.017165 
L 394.419562 41.830337 
L 394.16902 41.837143 
L 394.16902 41.649933 
L 392.415221 41.696962 
L 392.415221 41.508617 
L 391.914136 41.521885 
L 391.914136 41.333027 
L 391.162508 41.352618 
L 391.162508 41.163116 
L 389.408709 41.208253 
L 389.408709 41.017588 
L 389.158166 41.023943 
L 389.158166 40.832881 
L 386.151654 40.908277 
L 386.151654 40.715376 
L 385.901112 40.721584 
L 385.901112 40.334696 
L 385.149484 40.352576 
L 385.149484 39.963785 
L 379.13646 40.103077 
L 379.13646 39.904979 
L 378.134289 39.928108 
L 378.134289 39.729162 
L 377.382661 39.746175 
L 377.382661 39.546516 
L 377.132119 39.552062 
L 377.132119 39.35197 
L 376.129948 39.373665 
L 376.129948 39.172708 
L 375.37832 39.188632 
L 375.37832 38.986949 
L 375.127777 38.992128 
L 375.127777 38.587579 
L 372.622351 38.636866 
L 372.622351 38.432674 
L 370.868552 38.466571 
L 370.868552 38.261032 
L 368.112583 38.313357 
L 368.112583 38.105842 
L 367.86204 38.110489 
L 367.86204 37.902507 
L 363.10173 37.989191 
L 363.10173 37.777927 
L 362.600644 37.786881 
L 362.600644 37.574974 
L 361.849016 37.587977 
L 361.849016 37.375263 
L 356.086535 37.473231 
L 356.086535 37.256416 
L 354.332736 37.285764 
L 354.332736 37.06743 
L 351.576767 37.112331 
L 351.576767 36.670852 
L 350.574596 36.685987 
L 350.574596 36.464021 
L 344.31103 36.556396 
L 344.31103 36.102426 
L 341.304518 36.143688 
L 341.304518 35.913916 
L 339.550719 35.937047 
L 339.550719 35.705569 
L 336.293665 35.746749 
L 336.293665 35.512377 
L 333.03661 35.551905 
L 333.03661 35.314564 
L 332.786067 35.317441 
L 332.786067 34.841139 
L 331.783897 34.851078 
L 331.783897 34.611502 
L 330.280641 34.625311 
L 330.280641 34.384089 
L 329.027927 34.394668 
L 329.027927 34.151987 
L 328.025757 34.159677 
L 328.025757 33.915731 
L 326.522501 33.926093 
L 326.522501 33.680441 
L 325.770873 33.685018 
L 325.770873 33.438287 
L 314.997538 33.496996 
L 314.997538 33.240133 
L 310.237228 33.263043 
L 310.237228 33.00116 
L 302.219863 33.033605 
L 302.219863 32.763167 
L 291.697071 32.797546 
L 291.697071 32.515171 
L 256.370555 32.608806 
L 256.370555 32.279147 
L 163.419228 32.534013 
L 121.077518 32.851051 
L 103.038446 33.121752 
L 103.038446 31.948713 
L 43.15875 31.948713 
L 43.15875 31.948713 
" clip-path="url(#pf6b5a69635)" style="fill: none; stroke: #0173b2; stroke-width: 2; stroke-linecap: square"/>
   </g>
   <g id="line2d_26">
    <path d="M 410.20375 304.129313 
L 410.20375 278.726838 
L 405.557611 279.113032 
L 405.557611 279.005136 
L 405.557611 277.771956 
L 400.911472 278.172319 
L 400.911472 278.114724 
L 400.911472 276.231107 
L 396.265332 276.651558 
L 396.265332 276.588064 
L 396.265332 273.559776 
L 386.973054 274.464686 
L 386.973054 274.39149 
L 386.973054 273.33713 
L 382.326915 273.803131 
L 382.326915 273.72639 
L 382.326915 272.29246 
L 377.680775 272.775078 
L 377.680775 272.69318 
L 377.680775 271.248713 
L 373.034636 271.748296 
L 373.034636 271.660995 
L 373.034636 269.930002 
L 368.388497 270.449612 
L 368.388497 270.355458 
L 368.388497 269.489154 
L 363.742358 270.020565 
L 363.742358 269.923126 
L 363.742358 267.878291 
L 359.096218 268.433419 
L 359.096218 268.327182 
L 359.096218 264.765657 
L 354.450079 265.359578 
L 354.450079 259.738893 
L 349.80394 260.389722 
L 349.80394 259.463761 
L 345.157801 260.12707 
L 345.157801 259.01559 
L 340.511661 259.693402 
L 340.511661 247.478556 
L 331.219383 249.069182 
L 331.219383 242.810823 
L 326.573244 243.667986 
L 326.573244 240.087979 
L 321.927104 240.981281 
L 321.927104 240.353602 
L 317.280965 241.259711 
L 317.280965 238.657245 
L 307.988687 240.536414 
L 307.988687 238.840095 
L 303.342547 239.806877 
L 303.342547 224.406673 
L 298.696408 225.500184 
L 298.696408 221.310758 
L 294.050269 222.444663 
L 294.050269 221.341227 
L 289.40413 222.496059 
L 289.40413 221.937887 
L 284.757991 223.110659 
L 284.757991 221.981066 
L 280.111851 223.176238 
L 280.111851 220.244359 
L 275.465712 221.475049 
L 275.465712 220.256465 
L 270.819573 221.51185 
L 270.819573 217.010005 
L 266.173434 218.313253 
L 266.173434 216.953755 
L 261.527294 218.284727 
L 261.527294 217.59492 
L 256.881155 218.950001 
L 256.881155 216.8337 
L 252.235016 218.223813 
L 252.235016 216.769548 
L 247.588877 218.191247 
L 247.588877 215.940376 
L 242.942737 217.400627 
L 242.942737 215.057274 
L 238.296598 216.558164 
L 238.296598 214.114803 
L 233.650459 215.658584 
L 233.650459 214.822519 
L 229.00432 216.399017 
L 229.00432 204.146315 
L 224.35818 205.834526 
L 224.35818 195.417404 
L 219.712041 197.194238 
L 219.712041 190.511255 
L 215.065902 192.355006 
L 215.065902 187.977062 
L 205.773623 191.829614 
L 205.773623 172.713419 
L 201.127484 174.753487 
L 201.127484 166.216587 
L 196.481345 168.314522 
L 196.481345 166.010338 
L 187.189066 170.405801 
L 187.189066 163.005508 
L 182.542927 165.30475 
L 182.542927 151.057311 
L 173.250649 155.821654 
L 173.250649 142.112396 
L 168.604509 144.560478 
L 168.604509 140.721441 
L 163.95837 143.251039 
L 163.95837 139.198013 
L 159.312231 141.81385 
L 159.312231 112.385688 
L 154.666092 114.751481 
L 150.019953 117.260656 
L 145.373813 119.926654 
L 140.727674 122.764653 
L 140.727674 109.611999 
L 136.081535 112.385688 
L 136.081535 88.254596 
L 131.435396 90.600674 
L 131.435396 58.761038 
L 126.789256 60.101654 
L 126.789256 46.766051 
L 117.496978 48.509267 
L 112.850839 49.544301 
L 108.204699 50.717341 
L 103.55856 52.057957 
L 98.912421 53.604822 
L 94.266282 55.409498 
L 89.620142 57.542296 
L 84.974003 60.101654 
L 80.327864 63.229759 
L 75.681725 67.13989 
L 71.035585 72.167201 
L 66.389446 78.870282 
L 61.743307 88.254596 
L 57.097168 102.331066 
L 57.097168 31.948713 
L 43.15875 31.948713 
L 43.15875 31.948713 
" clip-path="url(#pf6b5a69635)" style="fill: none; stroke: #de8f05; stroke-width: 2; stroke-linecap: square"/>
   </g>
   <g id="line2d_27">
    <path d="M 410.20375 214.664733 
L 410.20375 208.90648 
L 409.764175 208.985233 
L 409.764175 208.892143 
L 409.764175 123.051905 
L 409.3246 123.125852 
L 409.3246 121.410967 
L 408.885025 121.484297 
L 408.885025 107.830653 
L 408.445451 107.897333 
L 408.445451 106.258514 
L 408.005876 106.324391 
L 408.005876 105.402068 
L 407.566301 105.467535 
L 407.566301 103.785508 
L 407.126726 103.85011 
L 407.126726 98.63356 
L 406.687151 98.695077 
L 406.687151 96.088 
L 406.247576 96.147944 
L 406.247576 93.475009 
L 405.808001 93.533272 
L 405.808001 87.102136 
L 405.368427 87.155944 
L 405.368427 82.88147 
L 404.928852 82.932149 
L 404.928852 78.965265 
L 404.489277 79.012901 
L 404.489277 74.410794 
L 404.049702 74.454705 
L 404.049702 73.461877 
L 403.610127 73.50503 
L 403.610127 72.503054 
L 403.170552 72.545431 
L 403.170552 72.293409 
L 402.730978 72.335655 
L 402.730978 70.811045 
L 402.291403 70.852039 
L 402.291403 68.526549 
L 401.851828 68.565545 
L 401.851828 65.659355 
L 401.412253 65.695759 
L 401.412253 64.8904 
L 400.972678 64.926128 
L 400.972678 64.656256 
L 400.533103 64.691808 
L 400.533103 60.28851 
L 400.093528 60.319894 
L 400.093528 54.878711 
L 399.214379 54.930706 
L 399.214379 54.343098 
L 398.774804 54.368575 
L 398.774804 53.777676 
L 397.895654 53.82757 
L 397.895654 52.934277 
L 396.57693 53.006724 
L 396.57693 49.974461 
L 396.137355 49.99547 
L 396.137355 49.379857 
L 395.69778 49.400244 
L 395.69778 48.470392 
L 395.258205 48.489807 
L 395.258205 47.86557 
L 394.81863 47.88434 
L 394.81863 45.035301 
L 394.379055 45.050917 
L 394.379055 44.730216 
L 393.939481 44.745505 
L 393.939481 44.423669 
L 393.060331 44.453621 
L 393.060331 43.806149 
L 392.620756 43.820435 
L 392.620756 43.495155 
L 392.181181 43.5091 
L 392.181181 40.542407 
L 391.302031 40.563444 
L 391.302031 39.557616 
L 390.422882 39.576357 
L 390.422882 38.900057 
L 389.983307 38.908649 
L 389.983307 38.568836 
L 389.543732 38.577039 
L 389.543732 36.171654 
L 389.104157 36.17694 
L 389.104157 35.829444 
L 388.664582 35.834314 
L 388.664582 34.43384 
L 388.225007 34.436978 
L 388.225007 34.084208 
L 387.345858 34.089621 
L 387.345858 33.735067 
L 386.466708 33.739613 
L 386.466708 32.667818 
L 385.587558 32.669659 
L 385.587558 32.309648 
L 385.147984 32.310112 
L 385.147984 31.948713 
L 43.15875 31.948713 
L 43.15875 31.948713 
" clip-path="url(#pf6b5a69635)" style="fill: none; stroke: #cc78bc; stroke-width: 2; stroke-linecap: square"/>
   </g>
   <g id="patch_3">
    <path d="M 43.15875 313.478125 
L 43.15875 26.318125 
" style="fill: none; stroke: #000000; stroke-width: 0.8; stroke-linejoin: miter; stroke-linecap: square"/>
   </g>
   <g id="patch_4">
    <path d="M 410.20375 313.478125 
L 410.20375 26.318125 
" style="fill: none; stroke: #000000; stroke-width: 0.8; stroke-linejoin: miter; stroke-linecap: square"/>
   </g>
   <g id="patch_5">
    <path d="M 43.15875 313.478125 
L 410.20375 313.478125 
" style="fill: none; stroke: #000000; stroke-width: 0.8; stroke-linejoin: miter; stroke-linecap: square"/>
   </g>
   <g id="patch_6">
    <path d="M 43.15875 26.318125 
L 410.20375 26.318125 
" style="fill: none; stroke: #000000; stroke-width: 0.8; stroke-linejoin: miter; stroke-linecap: square"/>
   </g>
   <g id="text_15">
    <!-- Precision-Recall Curves -->
    <g transform="translate(157.113125 16.318125) scale(0.12 -0.12)">
     <defs>
      <path id="DejaVuSans-2d" d="M 313 2009 
L 1997 2009 
L 1997 1497 
L 313 1497 
L 313 2009 
z
" transform="scale(0.015625)"/>
      <path id="DejaVuSans-20" transform="scale(0.015625)"/>
      <path id="DejaVuSans-43" d="M 4122 4306 
L 4122 3641 
Q 3803 3938 3442 4084 
Q 3081 4231 2675 4231 
Q 1875 4231 1450 3742 
Q 1025 3253 1025 2328 
Q 1025 1406 1450 917 
Q 1875 428 2675 428 
Q 3081 428 3442 575 
Q 3803 722 4122 1019 
L 4122 359 
Q 3791 134 3420 21 
Q 3050 -91 2638 -91 
Q 1578 -91 968 557 
Q 359 1206 359 2328 
Q 359 3453 968 4101 
Q 1578 4750 2638 4750 
Q 3056 4750 3426 4639 
Q 3797 4528 4122 4306 
z
" transform="scale(0.015625)"/>
      <path id="DejaVuSans-75" d="M 544 1381 
L 544 3500 
L 1119 3500 
L 1119 1403 
Q 1119 906 1312 657 
Q 1506 409 1894 409 
Q 2359 409 2629 706 
Q 2900 1003 2900 1516 
L 2900 3500 
L 3475 3500 
L 3475 0 
L 2900 0 
L 2900 538 
Q 2691 219 2414 64 
Q 2138 -91 1772 -91 
Q 1169 -91 856 284 
Q 544 659 544 1381 
z
M 1991 3584 
L 1991 3584 
z
" transform="scale(0.015625)"/>
      <path id="DejaVuSans-76" d="M 191 3500 
L 800 3500 
L 1894 563 
L 2988 3500 
L 3597 3500 
L 2284 0 
L 1503 0 
L 191 3500 
z
" transform="scale(0.015625)"/>
     </defs>
     <use xlink:href="#DejaVuSans-50"/>
     <use xlink:href="#DejaVuSans-72" transform="translate(58.552734 0)"/>
     <use xlink:href="#DejaVuSans-65" transform="translate(97.416016 0)"/>
     <use xlink:href="#DejaVuSans-63" transform="translate(158.939453 0)"/>
     <use xlink:href="#DejaVuSans-69" transform="translate(213.919922 0)"/>
     <use xlink:href="#DejaVuSans-73" transform="translate(241.703125 0)"/>
     <use xlink:href="#DejaVuSans-69" transform="translate(293.802734 0)"/>
     <use xlink:href="#DejaVuSans-6f" transform="translate(321.585938 0)"/>
     <use xlink:href="#DejaVuSans-6e" transform="translate(382.767578 0)"/>
     <use xlink:href="#DejaVuSans-2d" transform="translate(446.146484 0)"/>
     <use xlink:href="#DejaVuSans-52" transform="translate(482.230469 0)"/>
     <use xlink:href="#DejaVuSans-65" transform="translate(547.212891 0)"/>
     <use xlink:href="#DejaVuSans-63" transform="translate(608.736328 0)"/>
     <use xlink:href="#DejaVuSans-61" transform="translate(663.716797 0)"/>
     <use xlink:href="#DejaVuSans-6c" transform="translate(724.996094 0)"/>
     <use xlink:href="#DejaVuSans-6c" transform="translate(752.779297 0)"/>
     <use xlink:href="#DejaVuSans-20" transform="translate(780.5625 0)"/>
     <use xlink:href="#DejaVuSans-43" transform="translate(812.349609 0)"/>
     <use xlink:href="#DejaVuSans-75" transform="translate(882.173828 0)"/>
     <use xlink:href="#DejaVuSans-72" transform="translate(945.552734 0)"/>
     <use xlink:href="#DejaVuSans-76" transform="translate(986.666016 0)"/>
     <use xlink:href="#DejaVuSans-65" transform="translate(1045.845703 0)"/>
     <use xlink:href="#DejaVuSans-73" transform="translate(1107.369141 0)"/>
    </g>
   </g>
   <g id="legend_1">
    <g id="patch_7">
     <path d="M 49.45875 308.978125 
L 174.740156 308.978125 
Q 176.540156 308.978125 176.540156 307.178125 
L 176.540156 268.447188 
Q 176.540156 266.647188 174.740156 266.647188 
L 49.45875 266.647188 
Q 47.65875 266.647188 47.65875 268.447188 
L 47.65875 307.178125 
Q 47.65875 308.978125 49.45875 308.978125 
z
" style="fill: #ffffff; opacity: 0.8; stroke: #cccccc; stroke-linejoin: miter"/>
    </g>
    <g id="line2d_28">
     <path d="M 51.25875 273.935781 
L 60.25875 273.935781 
L 69.25875 273.935781 
" style="fill: none; stroke: #0173b2; stroke-width: 2; stroke-linecap: square"/>
    </g>
    <g id="text_16">
     <!-- Low (AP = 0.993) -->
     <g transform="translate(76.45875 277.085781) scale(0.09 -0.09)">
      <defs>
       <path id="DejaVuSans-4c" d="M 628 4666 
L 1259 4666 
L 1259 531 
L 3531 531 
L 3531 0 
L 628 0 
L 628 4666 
z
" transform="scale(0.015625)"/>
       <path id="DejaVuSans-77" d="M 269 3500 
L 844 3500 
L 1563 769 
L 2278 3500 
L 2956 3500 
L 3675 769 
L 4391 3500 
L 4966 3500 
L 4050 0 
L 3372 0 
L 2619 2869 
L 1863 0 
L 1184 0 
L 269 3500 
z
" transform="scale(0.015625)"/>
       <path id="DejaVuSans-28" d="M 1984 4856 
Q 1566 4138 1362 3434 
Q 1159 2731 1159 2009 
Q 1159 1288 1364 580 
Q 1569 -128 1984 -844 
L 1484 -844 
Q 1016 -109 783 600 
Q 550 1309 550 2009 
Q 550 2706 781 3412 
Q 1013 4119 1484 4856 
L 1984 4856 
z
" transform="scale(0.015625)"/>
       <path id="DejaVuSans-41" d="M 2188 4044 
L 1331 1722 
L 3047 1722 
L 2188 4044 
z
M 1831 4666 
L 2547 4666 
L 4325 0 
L 3669 0 
L 3244 1197 
L 1141 1197 
L 716 0 
L 50 0 
L 1831 4666 
z
" transform="scale(0.015625)"/>
       <path id="DejaVuSans-3d" d="M 678 2906 
L 4684 2906 
L 4684 2381 
L 678 2381 
L 678 2906 
z
M 678 1631 
L 4684 1631 
L 4684 1100 
L 678 1100 
L 678 1631 
z
" transform="scale(0.015625)"/>
       <path id="DejaVuSans-39" d="M 703 97 
L 703 672 
Q 941 559 1184 500 
Q 1428 441 1663 441 
Q 2288 441 2617 861 
Q 2947 1281 2994 2138 
Q 2813 1869 2534 1725 
Q 2256 1581 1919 1581 
Q 1219 1581 811 2004 
Q 403 2428 403 3163 
Q 403 3881 828 4315 
Q 1253 4750 1959 4750 
Q 2769 4750 3195 4129 
Q 3622 3509 3622 2328 
Q 3622 1225 3098 567 
Q 2575 -91 1691 -91 
Q 1453 -91 1209 -44 
Q 966 3 703 97 
z
M 1959 2075 
Q 2384 2075 2632 2365 
Q 2881 2656 2881 3163 
Q 2881 3666 2632 3958 
Q 2384 4250 1959 4250 
Q 1534 4250 1286 3958 
Q 1038 3666 1038 3163 
Q 1038 2656 1286 2365 
Q 1534 2075 1959 2075 
z
" transform="scale(0.015625)"/>
       <path id="DejaVuSans-33" d="M 2597 2516 
Q 3050 2419 3304 2112 
Q 3559 1806 3559 1356 
Q 3559 666 3084 287 
Q 2609 -91 1734 -91 
Q 1441 -91 1130 -33 
Q 819 25 488 141 
L 488 750 
Q 750 597 1062 519 
Q 1375 441 1716 441 
Q 2309 441 2620 675 
Q 2931 909 2931 1356 
Q 2931 1769 2642 2001 
Q 2353 2234 1838 2234 
L 1294 2234 
L 1294 2753 
L 1863 2753 
Q 2328 2753 2575 2939 
Q 2822 3125 2822 3475 
Q 2822 3834 2567 4026 
Q 2313 4219 1838 4219 
Q 1578 4219 1281 4162 
Q 984 4106 628 3988 
L 628 4550 
Q 988 4650 1302 4700 
Q 1616 4750 1894 4750 
Q 2613 4750 3031 4423 
Q 3450 4097 3450 3541 
Q 3450 3153 3228 2886 
Q 3006 2619 2597 2516 
z
" transform="scale(0.015625)"/>
       <path id="DejaVuSans-29" d="M 513 4856 
L 1013 4856 
Q 1481 4119 1714 3412 
Q 1947 2706 1947 2009 
Q 1947 1309 1714 600 
Q 1481 -109 1013 -844 
L 513 -844 
Q 928 -128 1133 580 
Q 1338 1288 1338 2009 
Q 1338 2731 1133 3434 
Q 928 4138 513 4856 
z
" transform="scale(0.015625)"/>
      </defs>
      <use xlink:href="#DejaVuSans-4c"/>
      <use xlink:href="#DejaVuSans-6f" transform="translate(53.962891 0)"/>
      <use xlink:href="#DejaVuSans-77" transform="translate(115.144531 0)"/>
      <use xlink:href="#DejaVuSans-20" transform="translate(196.931641 0)"/>
      <use xlink:href="#DejaVuSans-28" transform="translate(228.71875 0)"/>
      <use xlink:href="#DejaVuSans-41" transform="translate(267.732422 0)"/>
      <use xlink:href="#DejaVuSans-50" transform="translate(336.140625 0)"/>
      <use xlink:href="#DejaVuSans-20" transform="translate(396.443359 0)"/>
      <use xlink:href="#DejaVuSans-3d" transform="translate(428.230469 0)"/>
      <use xlink:href="#DejaVuSans-20" transform="translate(512.019531 0)"/>
      <use xlink:href="#DejaVuSans-30" transform="translate(543.806641 0)"/>
      <use xlink:href="#DejaVuSans-2e" transform="translate(607.429688 0)"/>
      <use xlink:href="#DejaVuSans-39" transform="translate(639.216797 0)"/>
      <use xlink:href="#DejaVuSans-39" transform="translate(702.839844 0)"/>
      <use xlink:href="#DejaVuSans-33" transform="translate(766.462891 0)"/>
      <use xlink:href="#DejaVuSans-29" transform="translate(830.085938 0)"/>
     </g>
    </g>
    <g id="line2d_29">
     <path d="M 51.25875 287.146094 
L 60.25875 287.146094 
L 69.25875 287.146094 
" style="fill: none; stroke: #de8f05; stroke-width: 2; stroke-linecap: square"/>
    </g>
    <g id="text_17">
     <!-- Medium (AP = 0.497) -->
     <g transform="translate(76.45875 290.296094) scale(0.09 -0.09)">
      <defs>
       <path id="DejaVuSans-4d" d="M 628 4666 
L 1569 4666 
L 2759 1491 
L 3956 4666 
L 4897 4666 
L 4897 0 
L 4281 0 
L 4281 4097 
L 3078 897 
L 2444 897 
L 1241 4097 
L 1241 0 
L 628 0 
L 628 4666 
z
" transform="scale(0.015625)"/>
       <path id="DejaVuSans-64" d="M 2906 2969 
L 2906 4863 
L 3481 4863 
L 3481 0 
L 2906 0 
L 2906 525 
Q 2725 213 2448 61 
Q 2172 -91 1784 -91 
Q 1150 -91 751 415 
Q 353 922 353 1747 
Q 353 2572 751 3078 
Q 1150 3584 1784 3584 
Q 2172 3584 2448 3432 
Q 2725 3281 2906 2969 
z
M 947 1747 
Q 947 1113 1208 752 
Q 1469 391 1925 391 
Q 2381 391 2643 752 
Q 2906 1113 2906 1747 
Q 2906 2381 2643 2742 
Q 2381 3103 1925 3103 
Q 1469 3103 1208 2742 
Q 947 2381 947 1747 
z
" transform="scale(0.015625)"/>
       <path id="DejaVuSans-6d" d="M 3328 2828 
Q 3544 3216 3844 3400 
Q 4144 3584 4550 3584 
Q 5097 3584 5394 3201 
Q 5691 2819 5691 2113 
L 5691 0 
L 5113 0 
L 5113 2094 
Q 5113 2597 4934 2840 
Q 4756 3084 4391 3084 
Q 3944 3084 3684 2787 
Q 3425 2491 3425 1978 
L 3425 0 
L 2847 0 
L 2847 2094 
Q 2847 2600 2669 2842 
Q 2491 3084 2119 3084 
Q 1678 3084 1418 2786 
Q 1159 2488 1159 1978 
L 1159 0 
L 581 0 
L 581 3500 
L 1159 3500 
L 1159 2956 
Q 1356 3278 1631 3431 
Q 1906 3584 2284 3584 
Q 2666 3584 2933 3390 
Q 3200 3197 3328 2828 
z
" transform="scale(0.015625)"/>
       <path id="DejaVuSans-37" d="M 525 4666 
L 3525 4666 
L 3525 4397 
L 1831 0 
L 1172 0 
L 2766 4134 
L 525 4134 
L 525 4666 
z
" transform="scale(0.015625)"/>
      </defs>
      <use xlink:href="#DejaVuSans-4d"/>
      <use xlink:href="#DejaVuSans-65" transform="translate(86.279297 0)"/>
      <use xlink:href="#DejaVuSans-64" transform="translate(147.802734 0)"/>
      <use xlink:href="#DejaVuSans-69" transform="translate(211.279297 0)"/>
      <use xlink:href="#DejaVuSans-75" transform="translate(239.0625 0)"/>
      <use xlink:href="#DejaVuSans-6d" transform="translate(302.441406 0)"/>
      <use xlink:href="#DejaVuSans-20" transform="translate(399.853516 0)"/>
      <use xlink:href="#DejaVuSans-28" transform="translate(431.640625 0)"/>
      <use xlink:href="#DejaVuSans-41" transform="translate(470.654297 0)"/>
      <use xlink:href="#DejaVuSans-50" transform="translate(539.0625 0)"/>
      <use xlink:href="#DejaVuSans-20" transform="translate(599.365234 0)"/>
      <use xlink:href="#DejaVuSans-3d" transform="translate(631.152344 0)"/>
      <use xlink:href="#DejaVuSans-20" transform="translate(714.941406 0)"/>
      <use xlink:href="#DejaVuSans-30" transform="translate(746.728516 0)"/>
      <use xlink:href="#DejaVuSans-2e" transform="translate(810.351562 0)"/>
      <use xlink:href="#DejaVuSans-34" transform="translate(842.138672 0)"/>
      <use xlink:href="#DejaVuSans-39" transform="translate(905.761719 0)"/>
      <use xlink:href="#DejaVuSans-37" transform="translate(969.384766 0)"/>
      <use xlink:href="#DejaVuSans-29" transform="translate(1033.007812 0)"/>
     </g>
    </g>
    <g id="line2d_30">
     <path d="M 51.25875 300.356406 
L 60.25875 300.356406 
L 69.25875 300.356406 
" style="fill: none; stroke: #cc78bc; stroke-width: 2; stroke-linecap: square"/>
    </g>
    <g id="text_18">
     <!-- High (AP = 0.993) -->
     <g transform="translate(76.45875 303.506406) scale(0.09 -0.09)">
      <defs>
       <path id="DejaVuSans-48" d="M 628 4666 
L 1259 4666 
L 1259 2753 
L 3553 2753 
L 3553 4666 
L 4184 4666 
L 4184 0 
L 3553 0 
L 3553 2222 
L 1259 2222 
L 1259 0 
L 628 0 
L 628 4666 
z
" transform="scale(0.015625)"/>
       <path id="DejaVuSans-67" d="M 2906 1791 
Q 2906 2416 2648 2759 
Q 2391 3103 1925 3103 
Q 1463 3103 1205 2759 
Q 947 2416 947 1791 
Q 947 1169 1205 825 
Q 1463 481 1925 481 
Q 2391 481 2648 825 
Q 2906 1169 2906 1791 
z
M 3481 434 
Q 3481 -459 3084 -895 
Q 2688 -1331 1869 -1331 
Q 1566 -1331 1297 -1286 
Q 1028 -1241 775 -1147 
L 775 -588 
Q 1028 -725 1275 -790 
Q 1522 -856 1778 -856 
Q 2344 -856 2625 -561 
Q 2906 -266 2906 331 
L 2906 616 
Q 2728 306 2450 153 
Q 2172 0 1784 0 
Q 1141 0 747 490 
Q 353 981 353 1791 
Q 353 2603 747 3093 
Q 1141 3584 1784 3584 
Q 2172 3584 2450 3431 
Q 2728 3278 2906 2969 
L 2906 3500 
L 3481 3500 
L 3481 434 
z
" transform="scale(0.015625)"/>
       <path id="DejaVuSans-68" d="M 3513 2113 
L 3513 0 
L 2938 0 
L 2938 2094 
Q 2938 2591 2744 2837 
Q 2550 3084 2163 3084 
Q 1697 3084 1428 2787 
Q 1159 2491 1159 1978 
L 1159 0 
L 581 0 
L 581 4863 
L 1159 4863 
L 1159 2956 
Q 1366 3272 1645 3428 
Q 1925 3584 2291 3584 
Q 2894 3584 3203 3211 
Q 3513 2838 3513 2113 
z
" transform="scale(0.015625)"/>
      </defs>
      <use xlink:href="#DejaVuSans-48"/>
      <use xlink:href="#DejaVuSans-69" transform="translate(75.195312 0)"/>
      <use xlink:href="#DejaVuSans-67" transform="translate(102.978516 0)"/>
      <use xlink:href="#DejaVuSans-68" transform="translate(166.455078 0)"/>
      <use xlink:href="#DejaVuSans-20" transform="translate(229.833984 0)"/>
      <use xlink:href="#DejaVuSans-28" transform="translate(261.621094 0)"/>
      <use xlink:href="#DejaVuSans-41" transform="translate(300.634766 0)"/>
      <use xlink:href="#DejaVuSans-50" transform="translate(369.042969 0)"/>
      <use xlink:href="#DejaVuSans-20" transform="translate(429.345703 0)"/>
      <use xlink:href="#DejaVuSans-3d" transform="translate(461.132812 0)"/>
      <use xlink:href="#DejaVuSans-20" transform="translate(544.921875 0)"/>
      <use xlink:href="#DejaVuSans-30" transform="translate(576.708984 0)"/>
      <use xlink:href="#DejaVuSans-2e" transform="translate(640.332031 0)"/>
      <use xlink:href="#DejaVuSans-39" transform="translate(672.119141 0)"/>
      <use xlink:href="#DejaVuSans-39" transform="translate(735.742188 0)"/>
      <use xlink:href="#DejaVuSans-33" transform="translate(799.365234 0)"/>
      <use xlink:href="#DejaVuSans-29" transform="translate(862.988281 0)"/>
     </g>
    </g>
   </g>
  </g>
 </g>
 <defs>
  <clipPath id="pf6b5a69635">
   <rect x="43.15875" y="26.318125" width="367.045" height="287.16"/>
  </clipPath>
 </defs>
</svg>
